# Blender 5.1.0
# www.blender.org
mtllib mirror_grime.mtl
o mirror_grime
v -14.959180 0.500000 13.932377
v -14.959180 1.500000 13.932377
v -14.959180 0.500000 12.432377
v -14.959180 1.500000 12.432377
v -14.919180 0.566774 13.865601
v -14.919180 1.433225 13.865601
v -14.919180 0.566774 12.499149
v -14.919180 1.433225 12.499149
v -14.919180 1.500000 12.432377
v -14.919180 0.500000 12.432377
v -14.919180 0.500000 13.932377
v -14.919180 1.500000 13.932377
v -14.952318 1.433225 12.499149
v -14.952318 0.566774 12.499149
v -14.952318 0.566774 13.865601
v -14.952318 1.433225 13.865601
v -14.959180 0.500000 12.954636
v -14.959180 0.500000 13.410118
v -14.959180 1.500000 13.410118
v -14.959180 1.500000 12.954636
v -14.919180 0.500000 13.410118
v -14.919180 0.500000 12.954636
v -14.919180 1.500000 12.954636
v -14.919180 1.500000 13.410118
v -14.919180 0.566774 13.410118
v -14.919180 0.566774 12.954636
v -14.919180 1.433225 12.954636
v -14.919180 1.433225 13.410118
v -14.952318 0.566774 13.410118
v -14.952318 0.566774 12.954636
v -14.952318 1.433225 12.954636
v -14.952318 1.433225 13.410118
v -14.959180 1.000000 13.932377
v -14.959180 1.000000 12.432377
v -14.919180 1.000000 12.432377
v -14.919180 1.000000 13.932377
v -14.919180 1.000000 12.499149
v -14.919180 1.000000 13.865601
v -14.952318 1.000000 12.499149
v -14.952318 1.000000 13.865601
v -14.952318 1.000000 12.954636
v -14.952318 1.000000 13.410118
v -14.959180 1.000000 13.410118
v -14.959180 1.000000 12.954636
v -14.959180 1.250000 13.932377
v -14.959180 1.250000 12.432377
v -14.919180 1.250000 12.432377
v -14.919180 1.250000 13.932377
v -14.919180 1.216613 12.499149
v -14.919180 1.216613 13.865601
v -14.952318 1.216613 12.499149
v -14.952318 1.216613 13.865601
v -14.952318 1.216613 12.954636
v -14.952318 1.216613 13.410118
v -14.959180 1.250000 13.410118
v -14.959180 1.250000 12.954636
v -14.959180 0.750000 12.432377
v -14.919180 0.750000 12.432377
v -14.919180 0.750000 13.932377
v -14.919180 0.783387 12.499149
v -14.919180 0.783387 13.865601
v -14.952318 0.783387 12.499149
v -14.952318 0.783387 13.865601
v -14.952318 0.783387 12.954636
v -14.952318 0.783387 13.410118
v -14.959180 0.750000 13.410118
v -14.959180 0.750000 12.954636
v -14.959180 0.750000 13.932377
v -14.959180 0.500000 13.671246
v -14.919180 1.500000 13.671246
v -14.919180 1.433225 13.637859
v -14.952318 1.433225 13.637859
v -14.959180 1.500000 13.671246
v -14.919180 0.500000 13.671246
v -14.919180 0.566774 13.637859
v -14.952318 0.566774 13.637859
v -14.959180 1.000000 13.671246
v -14.952318 1.000000 13.637859
v -14.959180 1.250000 13.671246
v -14.952318 1.216613 13.637859
v -14.952318 0.783387 13.637859
v -14.959180 0.750000 13.671246
v -14.959180 0.500000 13.182377
v -14.959180 1.500000 13.182377
v -14.919180 0.500000 13.182377
v -14.919180 1.500000 13.182377
v -14.919180 0.566774 13.182377
v -14.919180 1.433225 13.182377
v -14.952318 0.566774 13.182377
v -14.952318 1.433225 13.182377
v -14.959180 1.000000 13.182377
v -14.952318 1.000000 13.182377
v -14.959180 1.250000 13.182377
v -14.952318 1.216613 13.182377
v -14.952318 0.783387 13.182377
v -14.959180 0.750000 13.182377
v -14.959180 1.500000 12.693504
v -14.919180 0.500000 12.693504
v -14.919180 0.566774 12.726891
v -14.952318 0.566774 12.726891
v -14.959180 0.500000 12.693504
v -14.919180 1.500000 12.693504
v -14.919180 1.433225 12.726891
v -14.952318 1.433225 12.726891
v -14.952318 1.000000 12.726891
v -14.959180 1.000000 12.693504
v -14.952318 1.216613 12.726891
v -14.959180 1.250000 12.693504
v -14.959180 0.750000 12.693504
v -14.952318 0.783387 12.726891
vn -1.0000 -0.0000 -0.0000
vn -0.0000 -0.0000 -1.0000
vn -0.0000 -0.0000 1.0000
vn -0.0000 -1.0000 -0.0000
vn -0.0000 1.0000 -0.0000
vn 1.0000 -0.0000 -0.0000
vt 0.087216 0.091098
vt 0.000000 0.091098
vt 0.000000 0.000000
vt 0.087216 0.000000
vt 0.748757 0.087216
vt 0.748757 0.000000
vt 0.762712 0.000000
vt 0.762712 0.087216
vt 0.774273 0.226705
vt 0.774273 0.302273
vt 0.762712 0.302273
vt 0.762712 0.226705
vt 0.748757 0.436079
vt 0.748757 0.348863
vt 0.762712 0.348863
vt 0.762712 0.436079
vt 0.711681 0.091098
vt 0.697727 0.091098
vt 0.697727 0.000000
vt 0.711681 0.000000
vt 0.725636 0.091098
vt 0.711681 0.091098
vt 0.711681 0.000000
vt 0.725636 0.000000
vt 0.598863 0.500000
vt 0.674432 0.500000
vt 0.697727 0.523295
vt 0.610511 0.523295
vt 0.674432 0.102746
vt 0.674432 0.023295
vt 0.697727 0.000000
vt 0.697727 0.091098
vt 0.372159 0.420549
vt 0.372159 0.500000
vt 0.348863 0.523295
vt 0.348863 0.432197
vt 0.447727 0.023295
vt 0.372159 0.023295
vt 0.348864 0.000000
vt 0.436079 0.000000
vt 0.075568 0.602746
vt 0.000000 0.602746
vt 0.000000 0.523295
vt 0.075568 0.523295
vt 0.737197 0.397254
vt 0.737197 0.476705
vt 0.725636 0.476705
vt 0.725636 0.397254
vt 0.737197 0.079451
vt 0.737197 0.000000
vt 0.748757 0.000000
vt 0.748757 0.079451
vt 0.762712 0.377841
vt 0.774273 0.377841
vt 0.737197 0.397254
vt 0.737197 0.317803
vt 0.748757 0.317803
vt 0.748757 0.397254
vt 0.737197 0.238352
vt 0.737197 0.158902
vt 0.748757 0.158902
vt 0.748757 0.238352
vt 0.737197 0.079451
vt 0.737197 0.158902
vt 0.725636 0.158902
vt 0.725636 0.079451
vt 0.737197 0.238352
vt 0.737197 0.317803
vt 0.725636 0.317803
vt 0.725636 0.238352
vt 0.075568 0.920549
vt 0.000000 0.920549
vt 0.000000 0.841098
vt 0.075568 0.841098
vt 0.075568 0.761648
vt 0.000000 0.761648
vt 0.000000 0.682197
vt 0.075568 0.682197
vt 0.372159 0.102746
vt 0.372159 0.182197
vt 0.348863 0.182197
vt 0.348863 0.091098
vt 0.372159 0.261648
vt 0.372159 0.341098
vt 0.348863 0.341098
vt 0.348863 0.261648
vt 0.674432 0.420549
vt 0.674432 0.341098
vt 0.697727 0.341098
vt 0.697727 0.432197
vt 0.674432 0.261648
vt 0.674432 0.182197
vt 0.697727 0.182197
vt 0.697727 0.261648
vt 0.725636 0.432197
vt 0.711681 0.432197
vt 0.711681 0.341098
vt 0.725636 0.341098
vt 0.725636 0.261648
vt 0.711681 0.261648
vt 0.711681 0.182197
vt 0.725636 0.182197
vt 0.711681 0.432197
vt 0.697727 0.432197
vt 0.697727 0.341098
vt 0.711681 0.341098
vt 0.711681 0.261648
vt 0.697727 0.261648
vt 0.697727 0.182197
vt 0.711681 0.182197
vt 0.087216 0.432197
vt 0.000000 0.432197
vt 0.000000 0.341098
vt 0.087216 0.341098
vt 0.087216 0.261648
vt 0.000000 0.261648
vt 0.000000 0.182197
vt 0.087216 0.182197
vt 0.261648 0.261648
vt 0.174432 0.261648
vt 0.174432 0.182197
vt 0.261648 0.182197
vt 0.261648 0.432197
vt 0.174432 0.432197
vt 0.174432 0.341098
vt 0.261648 0.341098
vt 0.226705 0.761648
vt 0.151137 0.761648
vt 0.151137 0.682197
vt 0.226705 0.682197
vt 0.226705 0.920549
vt 0.151137 0.920549
vt 0.151137 0.841098
vt 0.226705 0.841098
vt 0.762712 0.528978
vt 0.762712 0.453410
vt 0.774273 0.453410
vt 0.774273 0.528978
vt 0.226705 0.602746
vt 0.151137 0.602746
vt 0.151137 0.523295
vt 0.226705 0.523295
vt 0.598863 0.023295
vt 0.523295 0.023295
vt 0.523295 0.000000
vt 0.610511 0.000000
vt 0.447727 0.500000
vt 0.523295 0.500000
vt 0.523295 0.523295
vt 0.436079 0.523295
vt 0.748757 0.610511
vt 0.748757 0.523295
vt 0.762712 0.523295
vt 0.762712 0.610511
vt 0.774273 0.075568
vt 0.774273 0.151137
vt 0.762712 0.151137
vt 0.762712 0.075568
vt 0.748757 0.261648
vt 0.748757 0.174432
vt 0.762712 0.174432
vt 0.762712 0.261648
vt 0.261648 0.091098
vt 0.174432 0.091098
vt 0.174432 0.000000
vt 0.261648 0.000000
vt 0.774273 0.000000
vt 0.348863 0.091098
vt 0.348863 0.000000
vt 0.748757 0.348863
vt 0.748757 0.697727
vt 0.762712 0.697727
vt 0.302273 0.602746
vt 0.302273 0.523295
vt 0.762712 0.604546
vt 0.774273 0.604546
vt 0.302273 0.920549
vt 0.302273 0.841098
vt 0.302273 0.761648
vt 0.302273 0.682197
vt 0.348863 0.432197
vt 0.348863 0.341098
vt 0.348863 0.261648
vt 0.348863 0.182197
vt 0.348863 0.523295
vt 0.261648 0.523295
vt 0.174432 0.523295
vt 0.087216 0.523295
vt 0.000000 0.523295
vt 0.737197 0.000000
vt 0.725636 0.000000
vt 0.302273 1.000000
vt 0.226705 1.000000
vt 0.151137 1.000000
vt 0.075568 1.000000
vt 0.711681 0.523295
vt 0.725636 0.523295
vt 0.711681 0.523295
vt 0.000000 1.000000
vt 0.737197 0.476705
vt 0.748757 0.476705
s 0
usemtl mirror_grime
f 108/1/1 97/2/1 4/3/1 46/4/1
f 46/5/2 4/6/2 9/7/2 47/8/2
f 61/9/2 5/10/2 15/11/2 63/12/2
f 48/13/3 12/14/3 2/15/3 45/16/3
f 69/17/4 74/18/4 11/19/4 1/20/4
f 70/21/5 73/22/5 2/23/5 12/24/5
f 60/25/6 7/26/6 10/27/6 58/28/6
f 75/29/6 5/30/6 11/31/6 74/32/6
f 103/33/6 8/34/6 9/35/6 102/36/6
f 50/37/6 6/38/6 12/39/6 48/40/6
f 80/41/6 72/42/6 16/43/6 52/44/6
f 99/45/5 7/46/5 14/47/5 100/48/5
f 71/49/4 6/50/4 16/51/4 72/52/4
f 49/53/3 8/11/3 13/10/3 51/54/3
f 103/55/4 27/56/4 31/57/4 104/58/4
f 88/59/4 28/60/4 32/61/4 90/62/4
f 75/63/5 25/64/5 29/65/5 76/66/5
f 87/67/5 26/68/5 30/69/5 89/70/5
f 107/71/6 104/72/6 31/73/6 53/74/6
f 94/75/6 90/76/6 32/77/6 54/78/6
f 71/79/6 28/80/6 24/81/6 70/82/6
f 88/83/6 27/84/6 23/85/6 86/86/6
f 99/87/6 26/88/6 22/89/6 98/90/6
f 87/91/6 25/92/6 21/93/6 85/94/6
f 102/95/5 97/96/5 20/97/5 23/98/5
f 86/99/5 84/100/5 19/101/5 24/102/5
f 101/103/4 98/104/4 22/105/4 17/106/4
f 83/107/4 85/108/4 21/109/4 18/110/4
f 79/111/1 73/112/1 19/113/1 55/114/1
f 93/115/1 84/116/1 20/117/1 56/118/1
f 96/119/1 91/120/1 44/121/1 67/122/1
f 82/123/1 77/124/1 43/125/1 66/126/1
f 95/127/6 92/128/6 42/129/6 65/130/6
f 110/131/6 105/132/6 41/133/6 64/134/6
f 60/135/3 37/136/3 39/137/3 62/138/3
f 81/139/6 78/140/6 40/141/6 63/142/6
f 61/143/6 38/144/6 36/145/6 59/146/6
f 49/147/6 37/148/6 35/149/6 47/150/6
f 59/151/3 36/152/3 33/153/3 68/154/3
f 50/155/2 38/156/2 40/157/2 52/158/2
f 57/159/2 34/160/2 35/161/2 58/162/2
f 109/163/1 106/164/1 34/165/1 57/166/1
f 6/167/2 50/155/2 52/158/2 16/7/2
f 8/34/6 49/147/6 47/150/6 9/35/6
f 91/120/1 93/115/1 56/118/1 44/121/1
f 77/124/1 79/111/1 55/114/1 43/125/1
f 92/128/6 94/75/6 54/78/6 42/129/6
f 105/132/6 107/71/6 53/74/6 41/133/6
f 37/136/3 49/53/3 51/54/3 39/137/3
f 78/140/6 80/41/6 52/44/6 40/141/6
f 38/144/6 50/37/6 48/40/6 36/145/6
f 36/152/3 48/13/3 45/16/3 33/153/3
f 34/160/2 46/5/2 47/8/2 35/161/2
f 106/164/1 108/1/1 46/4/1 34/165/1
f 101/168/1 109/163/1 57/166/1 3/169/1
f 3/170/2 57/159/2 58/162/2 10/15/2
f 11/171/3 59/151/3 68/154/3 1/172/3
f 5/30/6 61/143/6 59/146/6 11/31/6
f 76/173/6 81/139/6 63/142/6 15/174/6
f 7/175/3 60/135/3 62/138/3 14/176/3
f 100/177/6 110/131/6 64/134/6 30/178/6
f 89/179/6 95/127/6 65/130/6 29/180/6
f 69/181/1 82/123/1 66/126/1 18/182/1
f 83/183/1 96/119/1 67/122/1 17/184/1
f 37/148/6 60/25/6 58/28/6 35/149/6
f 38/156/2 61/9/2 63/12/2 40/157/2
f 1/185/1 68/186/1 82/123/1 69/181/1
f 29/180/6 65/130/6 81/139/6 76/173/6
f 42/129/6 54/78/6 80/41/6 78/140/6
f 33/187/1 45/188/1 79/111/1 77/124/1
f 65/130/6 42/129/6 78/140/6 81/139/6
f 68/186/1 33/187/1 77/124/1 82/123/1
f 45/188/1 2/189/1 73/112/1 79/111/1
f 6/38/6 71/79/6 70/82/6 12/39/6
f 5/190/5 75/63/5 76/66/5 15/191/5
f 28/60/4 71/49/4 72/52/4 32/61/4
f 54/78/6 32/77/6 72/42/6 80/41/6
f 25/92/6 75/29/6 74/32/6 21/93/6
f 24/102/5 19/101/5 73/22/5 70/21/5
f 18/110/4 21/109/4 74/18/4 69/17/4
f 18/182/1 66/126/1 96/119/1 83/183/1
f 30/178/6 64/134/6 95/127/6 89/179/6
f 41/133/6 53/74/6 94/75/6 92/128/6
f 43/125/1 55/114/1 93/115/1 91/120/1
f 64/134/6 41/133/6 92/128/6 95/127/6
f 66/126/1 43/125/1 91/120/1 96/119/1
f 55/114/1 19/113/1 84/116/1 93/115/1
f 17/106/4 22/105/4 85/108/4 83/107/4
f 23/98/5 20/97/5 84/100/5 86/99/5
f 26/88/6 87/91/6 85/94/6 22/89/6
f 28/80/6 88/83/6 86/86/6 24/81/6
f 53/74/6 31/73/6 90/76/6 94/75/6
f 25/64/5 87/67/5 89/70/5 29/65/5
f 27/56/4 88/59/4 90/62/4 31/57/4
f 14/192/6 62/193/6 110/131/6 100/177/6
f 17/184/1 67/122/1 109/163/1 101/168/1
f 44/121/1 56/118/1 108/1/1 106/164/1
f 39/194/6 51/195/6 107/71/6 105/132/6
f 67/122/1 44/121/1 106/164/1 109/163/1
f 62/193/6 39/194/6 105/132/6 110/131/6
f 3/196/4 10/27/4 98/104/4 101/103/4
f 9/197/5 4/198/5 97/96/5 102/95/5
f 7/26/6 99/87/6 98/90/6 10/27/6
f 51/195/6 13/199/6 104/72/6 107/71/6
f 8/200/4 103/55/4 104/58/4 13/201/4
f 26/68/5 99/45/5 100/48/5 30/69/5
f 27/84/6 103/33/6 102/36/6 23/85/6
f 56/118/1 20/117/1 97/2/1 108/1/1
