# Blender 5.1.0
# www.blender.org
mtllib grate_grime.mtl
o grate_grime
v -19.080027 0.041931 13.826141
v -19.046051 0.051931 13.792168
v -19.080027 0.041931 13.326141
v -19.046051 0.051931 13.360115
v -18.580027 0.041931 13.826141
v -18.614002 0.051931 13.792168
v -18.580027 0.041931 13.326141
v -18.614002 0.051931 13.360115
v -19.080027 0.051931 13.826141
v -19.080027 0.051931 13.326141
v -18.580027 0.051931 13.326141
v -18.580027 0.051931 13.826141
v -19.046051 0.050949 13.792168
v -19.046051 0.050949 13.360115
v -18.614002 0.050949 13.360115
v -18.614002 0.050949 13.792168
vn -1.0000 -0.0000 -0.0000
vn -0.0000 -0.0000 -1.0000
vn 1.0000 -0.0000 -0.0000
vn -0.0000 -0.0000 1.0000
vn -0.0000 -1.0000 -0.0000
vn -0.0000 1.0000 -0.0000
vt 0.515067 0.928207
vt 0.505278 0.928207
vt 0.505278 0.438763
vt 0.515067 0.438763
vt 0.535412 0.928207
vt 0.525623 0.928207
vt 0.525623 0.438763
vt 0.535412 0.438763
vt 0.555757 0.928207
vt 0.545968 0.928207
vt 0.545968 0.438763
vt 0.555757 0.438763
vt 0.576102 0.928207
vt 0.566313 0.928207
vt 0.566313 0.438763
vt 0.576102 0.438763
vt 0.494722 0.005278
vt 0.494722 0.494722
vt 0.005278 0.494722
vt 0.005278 0.005278
vt 0.586658 0.861692
vt 0.586658 0.438763
vt 0.587619 0.438763
vt 0.587619 0.861692
vt 0.038536 0.961464
vt 0.461464 0.961464
vt 0.494722 0.994722
vt 0.005278 0.994722
vt 0.461464 0.538536
vt 0.494722 0.505278
vt 0.038536 0.538536
vt 0.005278 0.505278
vt 0.928207 0.005278
vt 0.928207 0.428207
vt 0.505278 0.428207
vt 0.505278 0.005278
vt 0.598175 0.861692
vt 0.598175 0.438763
vt 0.599137 0.438763
vt 0.599137 0.861692
vt 0.609693 0.861692
vt 0.609693 0.438763
vt 0.610654 0.438763
vt 0.610654 0.861692
vt 0.621210 0.861692
vt 0.621210 0.438763
vt 0.622171 0.438763
vt 0.622171 0.861692
s 0
usemtl grate_grime
f 1/1/1 9/2/1 10/3/1 3/4/1
f 3/5/2 10/6/2 11/7/2 7/8/2
f 7/9/3 11/10/3 12/11/3 5/12/3
f 5/13/4 12/14/4 9/15/4 1/16/4
f 3/17/5 7/18/5 5/19/5 1/20/5
f 2/21/2 6/22/2 16/23/2 13/24/2
f 2/25/6 4/26/6 10/27/6 9/28/6
f 4/26/6 8/29/6 11/30/6 10/27/6
f 8/29/6 6/31/6 12/32/6 11/30/6
f 6/31/6 2/25/6 9/28/6 12/32/6
f 15/33/6 14/34/6 13/35/6 16/36/6
f 8/37/4 4/38/4 14/39/4 15/40/4
f 6/41/1 8/42/1 15/43/1 16/44/1
f 4/45/3 2/46/3 13/47/3 14/48/3
