# Blender 5.1.0
# www.blender.org
mtllib pipe_grime.mtl
o pipe_grime
v -17.491882 0.176949 13.180515
v -17.456598 0.162334 13.180515
v -17.441984 0.127050 13.180515
v -17.456598 0.091767 13.180515
v -17.491882 0.077152 13.180515
v -17.527166 0.091767 13.180515
v -17.541780 0.127050 13.180515
v -17.527166 0.162334 13.180515
v -17.456598 0.162334 13.680515
v -17.491882 0.176949 13.680515
v -17.441984 0.127050 13.680515
v -17.456598 0.091767 13.680515
v -17.491882 0.077152 13.680515
v -17.527166 0.091767 13.680515
v -17.541780 0.127050 13.680515
v -17.527166 0.162334 13.680515
vn 0.3827 0.9239 -0.0000
vn 0.9239 0.3827 -0.0000
vn 0.9239 -0.3827 -0.0000
vn 0.3827 -0.9239 -0.0000
vn -0.3827 -0.9239 -0.0000
vn -0.9239 -0.3827 -0.0000
vn -0.9239 0.3827 -0.0000
vn -0.0000 -0.0000 -1.0000
vn -0.0000 -0.0000 1.0000
vn -0.3827 0.9239 -0.0000
vt 1.000000 0.982429
vt 0.875000 0.982429
vt 0.875000 0.591370
vt 1.000000 0.591370
vt 0.750000 0.982429
vt 0.750000 0.591370
vt 0.625000 0.982429
vt 0.625000 0.591370
vt 0.500000 0.982429
vt 0.500000 0.591370
vt 0.375000 0.982429
vt 0.375000 0.591370
vt 0.250000 0.982429
vt 0.250000 0.591370
vt 0.125000 0.982429
vt 0.125000 0.591370
vt 0.250978 0.490000
vt 0.420683 0.419706
vt 0.490978 0.250000
vt 0.420683 0.080294
vt 0.250978 0.010000
vt 0.081272 0.080294
vt 0.010978 0.250000
vt 0.081272 0.419706
vt 0.419706 0.419706
vt 0.250000 0.490000
vt 0.080294 0.419706
vt 0.010000 0.250000
vt 0.080294 0.080294
vt 0.250000 0.010000
vt 0.419706 0.080294
vt 0.490000 0.250000
vt 0.000000 0.982429
vt 0.000000 0.591370
s 1
usemtl pipe_grime.002
f 10/1/1 9/2/1 2/3/1 1/4/1
f 2/3/2 9/2/2 11/5/2 3/6/2
f 3/6/3 11/5/3 12/7/3 4/8/3
f 4/8/4 12/7/4 13/9/4 5/10/4
f 5/10/5 13/9/5 14/11/5 6/12/5
f 6/12/6 14/11/6 15/13/6 7/14/6
f 7/14/7 15/13/7 16/15/7 8/16/7
f 1/17/8 2/18/8 3/19/8 4/20/8 5/21/8 6/22/8 7/23/8 8/24/8
f 9/25/9 10/26/9 16/27/9 15/28/9 14/29/9 13/30/9 12/31/9 11/32/9
f 8/16/10 16/15/10 10/33/10 1/34/10
