# Blender 5.1.0
# www.blender.org
mtllib pipe_corner.mtl
o pipe_corner
v -16.818077 0.077005 14.788406
v -16.853432 0.077005 14.803051
v -16.868076 0.077005 14.838409
v -16.853432 0.077005 14.873764
v -16.818077 0.077005 14.888409
v -16.782722 0.077005 14.873764
v -16.768078 0.077005 14.838409
v -16.782722 0.077005 14.803051
v -16.818077 0.043053 14.788406
v -16.818077 0.077005 14.788406
v -16.853432 0.082609 14.801937
v -16.868076 0.096139 14.834602
v -16.853432 0.109669 14.867268
v -16.818077 0.115273 14.880795
v -16.782722 0.109669 14.867268
v -16.768078 0.096139 14.834602
v -16.782722 0.082609 14.801937
v -16.818077 0.077005 14.788406
v -16.818077 0.077005 14.788406
v -16.853432 0.087360 14.798763
v -16.868076 0.112360 14.823765
v -16.853432 0.137360 14.848763
v -16.818077 0.147716 14.859119
v -16.782722 0.137360 14.848763
v -16.768078 0.112360 14.823765
v -16.782722 0.087360 14.798763
v -16.818077 0.077005 14.788406
v -16.853432 0.090535 14.794010
v -16.868076 0.123199 14.807541
v -16.853432 0.155863 14.821072
v -16.818077 0.169393 14.826675
v -16.782722 0.155863 14.821072
v -16.768078 0.123199 14.807541
v -16.782722 0.090535 14.794010
v -16.853432 0.091650 14.788406
v -16.868076 0.127005 14.788406
v -16.853432 0.162360 14.788406
v -16.818077 0.177005 14.788406
v -16.782722 0.162360 14.788406
v -16.768078 0.127005 14.788406
v -16.782722 0.091650 14.788406
v -16.853432 0.043053 14.803051
v -16.853432 0.062725 14.803051
v -16.818077 0.062725 14.788406
v -16.868076 0.062725 14.838409
v -16.853432 0.062725 14.873764
v -16.818077 0.062725 14.888409
v -16.782722 0.062725 14.873764
v -16.768078 0.062725 14.838409
v -16.782722 0.062725 14.803051
v -16.818077 0.062725 14.776398
v -16.853432 0.091650 14.774128
v -16.818077 0.077005 14.774128
v -16.868076 0.127005 14.774128
v -16.853432 0.162360 14.774128
v -16.818077 0.177005 14.774128
v -16.782722 0.162360 14.774128
v -16.768078 0.127005 14.774128
v -16.782722 0.091650 14.774128
v -16.861923 0.062725 14.794559
v -16.868076 0.043053 14.838409
v -16.853432 0.043053 14.873764
v -16.818077 0.043053 14.888409
v -16.782722 0.043053 14.873764
v -16.768078 0.043053 14.838409
v -16.782722 0.043053 14.803051
v -16.818077 0.043053 14.838409
v -16.853432 0.091650 14.754456
v -16.818077 0.077005 14.754456
v -16.868076 0.127005 14.754456
v -16.853432 0.162360 14.754456
v -16.818077 0.177005 14.754456
v -16.782722 0.162360 14.754456
v -16.768078 0.127005 14.754456
v -16.782722 0.091650 14.754456
v -16.818077 0.127005 14.754456
v -16.880085 0.062725 14.838409
v -16.861923 0.062725 14.882256
v -16.818077 0.062725 14.900417
v -16.774231 0.062725 14.882256
v -16.756069 0.062725 14.838409
v -16.774231 0.062725 14.794559
v -16.880085 0.127005 14.774128
v -16.880085 0.127005 14.754456
v -16.861923 0.043053 14.882256
v -16.861923 0.083158 14.774128
v -16.861923 0.083158 14.754456
v -16.880085 0.043053 14.838409
v -16.818077 0.064997 14.774128
v -16.818077 0.064997 14.754456
v -16.861923 0.043053 14.794559
v -16.774231 0.083158 14.774128
v -16.774231 0.083158 14.754456
v -16.818077 0.043053 14.776398
v -16.861923 0.170852 14.774128
v -16.818077 0.189013 14.774128
v -16.774231 0.170852 14.774128
v -16.756069 0.127005 14.774128
v -16.756069 0.127005 14.754456
v -16.774231 0.043053 14.794559
v -16.774231 0.170852 14.754456
v -16.756069 0.043053 14.838409
v -16.861923 0.170852 14.754456
v -16.818077 0.189013 14.754456
v -16.774231 0.043053 14.882256
v -16.818077 0.043053 14.900417
vn -0.9239 -0.0000 0.3827
vn 0.3827 0.9239 -0.0000
vn -0.3827 0.9239 -0.0000
vn -0.9239 -0.0000 -0.3827
vn -0.9239 0.3827 -0.0000
vn -0.3827 -0.0000 -0.9239
vn 0.3827 -0.0000 -0.9239
vn -0.9239 -0.3827 -0.0000
vn -0.9212 -0.2161 -0.3234
vn -0.3764 0.5147 0.7703
vn 0.9212 0.2161 0.3235
vn 0.3763 -0.5149 -0.7702
vn -0.3763 -0.5149 -0.7703
vn -0.9212 0.2161 0.3235
vn 0.3764 0.5147 0.7703
vn 0.9212 -0.2161 -0.3234
vn -0.3764 -0.1804 -0.9087
vn 0.3764 -0.1804 -0.9087
vn 0.9212 0.0759 0.3816
vn -0.3763 0.1808 0.9087
vn -0.9212 -0.0759 -0.3816
vn 0.9212 -0.0759 -0.3816
vn 0.3764 0.1808 0.9087
vn -0.9212 0.0759 0.3816
vn 0.9212 -0.3235 -0.2161
vn -0.9212 -0.3235 -0.2161
vn -0.3764 0.7703 0.5147
vn 0.9212 0.3235 0.2161
vn 0.3765 -0.7703 -0.5147
vn -0.3765 -0.7703 -0.5147
vn -0.9212 0.3235 0.2162
vn 0.3764 0.7703 0.5147
vn -0.9212 -0.3816 -0.0761
vn -0.3764 0.9087 0.1807
vn 0.9212 0.3816 0.0759
vn 0.3764 -0.9087 -0.1807
vn -0.3764 -0.9087 -0.1807
vn -0.9212 0.3816 0.0759
vn 0.3764 0.9087 0.1807
vn 0.9212 -0.3816 -0.0760
vn 0.9239 -0.0000 -0.3826
vn -0.3827 -0.9239 -0.0000
vn 0.9239 -0.0000 0.3827
vn 0.3827 -0.9239 -0.0000
vn 0.3827 -0.0000 0.9239
vn 0.9239 -0.3827 -0.0000
vn -0.3827 -0.0000 0.9239
vn 0.9239 0.3827 -0.0000
vn -0.0000 -0.0000 1.0000
vn -0.0000 -1.0000 -0.0000
vn -0.0000 1.0000 -0.0000
vn -0.0000 -0.0000 -1.0000
vn -0.9239 -0.3827 0.0001
vn -0.9239 -0.0000 -0.3826
vn 0.9239 -0.0000 -0.3827
vn -0.0000 0.0001 -1.0000
vn -0.0000 -0.0001 -1.0000
vt 0.589780 0.491090
vt 0.666201 0.493850
vt 0.666200 0.521980
vt 0.589780 0.519220
vt 0.661277 0.601763
vt 0.589780 0.602555
vt 0.589780 0.573687
vt 0.661277 0.572895
vt 0.732774 0.602555
vt 0.732774 0.573687
vt 0.728863 0.483576
vt 0.728863 0.511705
vt 0.764547 0.390046
vt 0.757668 0.313886
vt 0.785757 0.312369
vt 0.792636 0.388529
vt 0.710304 0.797205
vt 0.711358 0.870780
vt 0.682498 0.870860
vt 0.681444 0.797285
vt 0.710304 0.939770
vt 0.681444 0.939849
vt 0.757668 0.453172
vt 0.785757 0.451655
vt 0.731056 0.472418
vt 0.673687 0.455755
vt 0.695006 0.422651
vt 0.737300 0.462722
vt 0.487845 0.716754
vt 0.434562 0.711805
vt 0.432175 0.634845
vt 0.485807 0.651064
vt 0.160483 0.974211
vt 0.140749 0.917825
vt 0.172655 0.894751
vt 0.214950 0.934822
vt 0.721710 0.939913
vt 0.731540 0.940383
vt 0.721710 0.797349
vt 0.731540 0.797819
vt 0.602560 0.426058
vt 0.638953 0.369545
vt 0.357294 0.707884
vt 0.355257 0.642195
vt 0.107258 0.848404
vt 0.116603 0.841645
vt 0.096235 0.990481
vt 0.103113 0.927355
vt 0.479240 0.782899
vt 0.424482 0.789299
vt 0.096235 0.851195
vt 0.348689 0.774029
vt 0.122847 0.831949
vt 0.193974 0.861647
vt 0.726911 0.399577
vt 0.746645 0.455964
vt 0.732774 0.725916
vt 0.661277 0.746290
vt 0.661277 0.679535
vt 0.732774 0.668937
vt 0.251343 0.878309
vt 0.931925 0.801338
vt 0.911742 0.874299
vt 0.922094 0.800868
vt 0.931925 0.943902
vt 0.922094 0.943432
vt 0.693420 0.330156
vt 0.342888 0.586961
vt 0.417685 0.570135
vt 0.201460 0.823552
vt 0.264123 0.813277
vt 0.910688 0.800724
vt 0.910688 0.943289
vt 0.589780 0.668937
vt 0.125040 0.820792
vt 0.075025 0.928873
vt 0.068146 0.852713
vt 0.881828 0.943368
vt 0.882882 0.874379
vt 0.068146 0.991999
vt 0.881828 0.800804
vt 0.418680 0.816116
vt 0.342888 0.800846
vt 0.125040 0.792662
vt 0.201460 0.795422
vt 0.473439 0.809715
vt 0.264123 0.785148
vt 0.764206 0.107955
vt 0.757910 0.184387
vt 0.733994 0.193154
vt 0.741802 0.098366
vt 0.068204 0.183039
vt 0.068204 0.334385
vt 0.024487 0.352547
vt 0.024487 0.164854
vt 0.949318 0.110726
vt 0.894613 0.055994
vt 0.903903 0.033562
vt 0.971747 0.101440
vt 0.825148 0.054913
vt 0.817380 0.032584
vt 0.174833 0.076051
vt 0.156725 0.032170
vt 0.817249 0.055975
vt 0.807959 0.033538
vt 0.905036 0.056331
vt 0.916455 0.034343
vt 0.325630 0.076091
vt 0.343738 0.032220
vt 0.762544 0.110679
vt 0.740116 0.101381
vt 0.957073 0.111379
vt 0.980990 0.102612
vt 0.762544 0.188063
vt 0.740116 0.197350
vt 0.950777 0.187811
vt 0.973181 0.197400
vt 0.817249 0.242795
vt 0.807959 0.265227
vt 0.889835 0.240853
vt 0.897603 0.263182
vt 0.894613 0.242815
vt 0.903903 0.265252
vt 0.175934 0.445946
vt 0.326731 0.445987
vt 0.344839 0.489868
vt 0.157826 0.489818
vt 0.250232 0.258761
vt 0.432259 0.183137
vt 0.432259 0.334482
vt 0.325630 0.441471
vt 0.174833 0.441430
vt 0.251332 0.263277
vt 0.433360 0.338998
vt 0.326731 0.080607
vt 0.433360 0.187653
vt 0.069305 0.338900
vt 0.069305 0.187555
vt 0.175934 0.080567
vt 0.230266 0.687271
vt 0.221735 0.592819
vt 0.260427 0.590729
vt 0.268958 0.685180
vt 0.934050 0.392648
vt 0.921528 0.325432
vt 0.958925 0.330902
vt 0.971447 0.398118
vt 0.221735 0.765558
vt 0.260427 0.763467
vt 0.025458 0.763467
vt 0.033989 0.669016
vt 0.072681 0.671106
vt 0.064150 0.765558
vt 0.884613 0.403614
vt 0.883306 0.489173
vt 0.843551 0.489282
vt 0.844858 0.403724
vt 0.025458 0.590729
vt 0.064150 0.592819
vt 0.883306 0.312369
vt 0.843551 0.312478
vt 0.921583 0.572895
vt 0.922891 0.664140
vt 0.883136 0.664250
vt 0.881828 0.573005
vt 0.830913 0.653272
vt 0.822382 0.747724
vt 0.783690 0.745633
vt 0.792220 0.651182
vt 0.921583 0.749699
vt 0.881828 0.749809
vt 0.822382 0.574986
vt 0.783690 0.572895
vt 0.162289 0.590729
vt 0.170820 0.685180
vt 0.132127 0.687271
vt 0.123596 0.592819
vt 0.590762 0.885874
vt 0.589780 0.797205
vt 0.629546 0.797205
vt 0.630528 0.885874
vt 0.162289 0.763467
vt 0.123596 0.765558
vt 0.589780 0.974542
vt 0.629546 0.974542
vt 0.921528 0.487711
vt 0.958925 0.493180
vt 0.025588 0.357063
vt 0.156725 0.485302
vt 0.809947 0.239435
vt 0.798529 0.261423
vt 0.025588 0.169369
vt 0.343738 0.485352
vt 0.157826 0.036685
vt 0.475976 0.352668
vt 0.344839 0.036736
vt 0.475976 0.164975
vt 0.477077 0.169491
vt 0.477077 0.357184
vt 0.949318 0.188110
vt 0.971747 0.197409
s 0
usemtl pipe_corner
f 4/1/1 3/2/1 45/3/1 46/4/1
f 38/5/2 39/6/2 57/7/2 56/8/2
f 37/9/3 38/5/3 56/8/3 55/10/3
f 3/2/4 2/11/4 43/12/4 45/3/4
f 36/13/5 37/14/5 55/15/5 54/16/5
f 2/17/6 1/18/6 44/19/6 43/20/6
f 1/18/7 8/21/7 50/22/7 44/19/7
f 35/23/8 36/13/8 54/16/8 52/24/8
f 11/25/9 12/26/9 21/27/9 20/28/9
f 13/29/10 14/30/10 23/31/10 22/32/10
f 15/33/11 16/34/11 25/35/11 24/36/11
f 17/37/12 10/18/12 19/18/12 26/38/12
f 10/18/13 11/39/13 20/40/13 19/18/13
f 12/26/14 13/41/14 22/42/14 21/27/14
f 14/30/15 15/43/15 24/44/15 23/31/15
f 16/34/16 17/45/16 26/46/16 25/35/16
f 1/18/17 2/17/17 11/39/17 10/18/17
f 8/21/18 1/18/18 10/18/18 17/37/18
f 6/47/19 7/48/19 16/34/19 15/33/19
f 4/49/20 5/50/20 14/30/20 13/29/20
f 2/11/21 3/2/21 12/26/21 11/25/21
f 7/48/22 8/51/22 17/45/22 16/34/22
f 5/50/23 6/52/23 15/43/23 14/30/23
f 3/2/24 4/1/24 13/41/24 12/26/24
f 25/35/25 26/46/25 34/53/25 33/54/25
f 20/28/26 21/27/26 29/55/26 28/56/26
f 22/57/27 23/58/27 31/59/27 30/60/27
f 24/36/28 25/35/28 33/54/28 32/61/28
f 26/62/29 19/63/29 18/63/29 34/64/29
f 19/63/30 20/65/30 28/66/30 18/63/30
f 21/27/31 22/42/31 30/67/31 29/55/31
f 23/31/32 24/44/32 32/68/32 31/69/32
f 28/56/33 29/55/33 36/13/33 35/23/33
f 30/60/34 31/59/34 38/5/34 37/9/34
f 32/61/35 33/54/35 40/70/35 39/71/35
f 34/64/36 18/63/36 27/63/36 41/72/36
f 18/63/37 28/66/37 35/73/37 27/63/37
f 29/55/38 30/67/38 37/14/38 36/13/38
f 31/59/39 32/74/39 39/6/39 38/5/39
f 33/54/40 34/53/40 41/75/40 40/70/40
f 8/51/41 7/48/41 49/76/41 50/77/41
f 27/63/42 35/73/42 52/78/42 53/79/42
f 7/48/43 6/47/43 48/80/43 49/76/43
f 41/72/44 27/63/44 53/79/44 59/81/44
f 6/52/45 5/50/45 47/82/45 48/83/45
f 40/70/46 41/75/46 59/84/46 58/85/46
f 5/50/47 4/49/47 46/86/47 47/82/47
f 39/71/48 40/70/48 58/85/48 57/87/48
f 57/88/49 58/89/49 98/90/49 97/91/49
f 61/92/50 62/93/50 85/94/50 88/95/50
f 44/96/51 50/97/51 82/98/51 51/99/51
f 56/100/49 57/88/49 97/91/49 96/101/49
f 42/102/50 61/92/50 88/95/50 91/103/50
f 50/97/51 49/104/51 81/105/51 82/98/51
f 55/106/49 56/100/49 96/101/49 95/107/49
f 9/108/50 42/102/50 91/103/50 94/109/50
f 49/104/51 48/110/51 80/111/51 81/105/51
f 54/112/49 55/106/49 95/107/49 83/113/49
f 48/110/51 47/114/51 79/115/51 80/111/51
f 52/116/49 54/112/49 83/113/49 86/117/49
f 47/114/51 46/118/51 78/119/51 79/115/51
f 53/120/49 52/116/49 86/117/49 89/121/49
f 46/118/51 45/122/51 77/123/51 78/119/51
f 69/124/52 75/125/52 93/126/52 90/127/52
f 67/128/50 66/129/50 65/130/50
f 67/128/50 64/131/50 63/132/50
f 42/102/50 67/128/50 61/92/50
f 62/93/50 67/128/50 63/132/50
f 65/130/50 64/131/50 67/128/50
f 9/108/50 66/129/50 67/128/50
f 9/108/50 67/128/50 42/102/50
f 61/92/50 67/128/50 62/93/50
f 76/133/52 74/134/52 75/125/52
f 76/133/52 72/135/52 73/136/52
f 68/137/52 70/138/52 76/133/52
f 71/139/52 72/135/52 76/133/52
f 74/134/52 76/133/52 73/136/52
f 69/124/52 76/133/52 75/125/52
f 69/124/52 68/137/52 76/133/52
f 70/138/52 71/139/52 76/133/52
f 83/140/5 95/141/5 103/142/5 84/143/5
f 79/144/47 78/145/47 85/146/47 106/147/47
f 86/148/53 83/140/53 84/143/53 87/149/53
f 78/150/1 77/151/1 88/152/1 85/153/1
f 89/154/42 86/155/42 87/156/42 90/157/42
f 77/151/54 60/158/54 91/159/54 88/152/54
f 92/160/44 89/154/44 90/157/44 93/161/44
f 60/162/6 51/163/6 94/164/6 91/165/6
f 98/166/46 92/167/46 93/168/46 99/169/46
f 51/163/7 82/170/7 100/171/7 94/164/7
f 97/172/48 98/166/48 99/169/48 101/173/48
f 82/174/55 81/175/55 102/176/55 100/177/55
f 96/178/2 97/179/2 101/180/2 104/181/2
f 81/175/43 80/182/43 105/183/43 102/176/43
f 95/184/3 96/178/3 104/181/3 103/185/3
f 80/186/45 79/144/45 106/147/45 105/187/45
f 68/137/52 69/124/52 90/127/52 87/188/52
f 62/93/50 63/132/50 106/189/50 85/94/50
f 58/89/49 59/190/49 92/191/49 98/90/49
f 70/138/56 68/137/56 87/188/56 84/192/56
f 63/132/50 64/131/50 105/193/50 106/189/50
f 59/190/49 53/120/49 89/121/49 92/191/49
f 71/139/57 70/138/57 84/192/57 103/194/57
f 64/131/50 65/130/50 102/195/50 105/193/50
f 72/135/52 71/139/52 103/194/52 104/196/52
f 65/130/50 66/129/50 100/197/50 102/195/50
f 73/136/52 72/135/52 104/196/52 101/198/52
f 66/129/50 9/108/50 94/109/50 100/197/50
f 74/134/57 73/136/57 101/198/57 99/199/57
f 43/200/51 44/96/51 51/99/51 60/201/51
f 75/125/56 74/134/56 99/199/56 93/126/56
f 45/122/51 43/200/51 60/201/51 77/123/51
