# Blender 5.1.0
# www.blender.org
mtllib pipe_single_grime.mtl
o pipe_single_grime
v -17.290743 0.176948 13.180515
v -17.255459 0.162333 13.180515
v -17.240845 0.127050 13.180515
v -17.255459 0.091766 13.180515
v -17.290743 0.077151 13.180515
v -17.326027 0.091766 13.180515
v -17.340641 0.127050 13.180515
v -17.326027 0.162333 13.180515
v -17.255459 0.162333 13.680515
v -17.290743 0.176948 13.680515
v -17.240845 0.127050 13.680515
v -17.255459 0.091766 13.680515
v -17.290743 0.077151 13.680515
v -17.326027 0.091766 13.680515
v -17.340641 0.127050 13.680515
v -17.326027 0.162333 13.680515
v -17.290743 0.176948 13.660824
v -17.255459 0.162333 13.660824
v -17.240845 0.127050 13.660824
v -17.255459 0.091766 13.660824
v -17.290743 0.077151 13.660824
v -17.326027 0.091766 13.660824
v -17.340641 0.127050 13.660824
v -17.326027 0.162333 13.660824
v -17.246889 0.170904 13.680515
v -17.290743 0.189070 13.680515
v -17.228724 0.127050 13.680515
v -17.246889 0.083195 13.680515
v -17.290743 0.065030 13.680515
v -17.334597 0.083195 13.680515
v -17.352762 0.127050 13.680515
v -17.334597 0.170904 13.680515
v -17.290743 0.189070 13.660824
v -17.246889 0.170904 13.660824
v -17.228724 0.127050 13.660824
v -17.246889 0.083195 13.660824
v -17.290743 0.065030 13.660824
v -17.334597 0.083195 13.660824
v -17.352762 0.127050 13.660824
v -17.334597 0.170904 13.660824
vn -0.0000 -0.0000 1.0000
vn -0.0000 0.0001 -1.0000
vn -0.0000 -0.0000 -1.0000
vn -0.3827 0.9239 -0.0000
vn -0.9239 0.3827 -0.0000
vn -0.9239 -0.3827 -0.0000
vn -0.3827 -0.9239 -0.0000
vn 0.3827 -0.9239 -0.0000
vn 0.9239 -0.3827 -0.0000
vn 0.9239 0.3827 -0.0000
vn 0.3827 0.9239 -0.0000
vn -0.0000 -0.0001 -1.0000
vt 0.080294 0.080294
vt 0.010000 0.250000
vt 0.250000 0.984456
vt 0.375000 0.984456
vt 0.250000 0.010000
vt 0.125000 0.984456
vt 0.419706 0.080294
vt 0.000000 0.984456
vt 0.490000 0.250000
vt 0.249329 0.490000
vt 0.419034 0.419706
vt 0.489329 0.250000
vt 0.419034 0.080294
vt 0.249329 0.010000
vt 0.079623 0.080294
vt 0.009329 0.250000
vt 0.079623 0.419706
vt 0.419706 0.419706
vt 0.250000 0.490000
vt 0.080294 0.419706
vt 0.125000 0.591370
vt 0.000000 0.591370
vt 0.250000 0.591370
vt 0.375000 0.591370
vt 0.500000 0.591370
vt 0.500000 0.984456
vt 0.625000 0.591370
vt 0.625000 0.984456
vt 0.750000 0.591370
vt 0.750000 0.984456
vt 0.875000 0.591370
vt 0.875000 0.984456
vt 1.000000 0.591370
vt 1.000000 0.984456
vt 0.875000 1.000000
vt 0.750000 1.000000
vt 0.625000 1.000000
vt 0.500000 1.000000
vt 0.375000 1.000000
vt 0.250000 1.000000
vt 0.125000 1.000000
vt 0.000000 1.000000
vt 1.000000 1.000000
s 0
usemtl pipe_single_grime
f 14/1/1 15/2/1 31/2/1 30/1/1
f 23/3/2 22/4/2 38/4/2 39/3/2
f 13/5/1 14/1/1 30/1/1 29/5/1
f 24/6/3 23/3/3 39/3/3 40/6/3
f 12/7/1 13/5/1 29/5/1 28/7/1
f 17/8/3 24/6/3 40/6/3 33/8/3
f 11/9/1 12/7/1 28/7/1 27/9/1
f 1/10/3 2/11/3 3/12/3 4/13/3 5/14/3 6/15/3 7/16/3 8/17/3
f 9/18/1 10/19/1 16/20/1 15/2/1 14/1/1 13/5/1 12/7/1 11/9/1
f 8/21/4 24/6/4 17/8/4 1/22/4
f 7/23/5 23/3/5 24/6/5 8/21/5
f 6/24/6 22/4/6 23/3/6 7/23/6
f 5/25/7 21/26/7 22/4/7 6/24/7
f 4/27/8 20/28/8 21/26/8 5/25/8
f 3/29/9 19/30/9 20/28/9 4/27/9
f 2/31/10 18/32/10 19/30/10 3/29/10
f 1/33/11 17/34/11 18/32/11 2/31/11
f 18/32/3 17/34/3 33/34/3 34/32/3
f 25/35/10 27/36/10 35/30/10 34/32/10
f 27/36/9 28/37/9 36/28/9 35/30/9
f 28/37/8 29/38/8 37/26/8 36/28/8
f 29/38/7 30/39/7 38/4/7 37/26/7
f 30/39/6 31/40/6 39/3/6 38/4/6
f 31/40/5 32/41/5 40/6/5 39/3/5
f 32/41/4 26/42/4 33/8/4 40/6/4
f 33/34/11 26/43/11 25/35/11 34/32/11
f 22/4/3 21/26/3 37/26/3 38/4/3
f 15/2/1 16/20/1 32/20/1 31/2/1
f 21/26/3 20/28/3 36/28/3 37/26/3
f 16/20/1 10/19/1 26/19/1 32/20/1
f 20/28/3 19/30/3 35/30/3 36/28/3
f 10/19/1 9/18/1 25/18/1 26/19/1
f 19/30/12 18/32/12 34/32/12 35/30/12
f 9/18/1 11/9/1 27/9/1 25/18/1
