# Blender 5.1.0
# www.blender.org
mtllib floor_outer2.mtl
o floor_outer2
v -23.999998 0.000000 -0.741573
v -21.999998 0.000000 -0.741573
v -23.999998 0.000000 -2.741573
v -21.999998 0.000000 -2.741573
v -22.999998 0.000000 -0.741573
v -22.999998 0.000000 -2.741573
v -23.999998 0.000000 -1.741573
v -21.999998 0.000000 -1.741573
v -22.999998 0.000000 -1.741573
v -23.999998 0.000000 -1.241573
v -22.499998 0.000000 -0.741573
v -21.999998 0.000000 -2.241573
v -23.499998 0.000000 -2.741573
v -23.499998 0.000000 -0.741573
v -22.499998 0.000000 -2.741573
v -22.999998 0.000000 -2.241573
v -23.999998 0.000000 -2.241573
v -21.999998 0.000000 -1.241573
v -22.999998 0.000000 -1.241573
v -23.499998 0.000000 -1.741573
v -22.499998 0.000000 -1.741573
v -22.499998 0.000000 -1.241573
v -23.499998 0.000000 -1.241573
v -23.499998 0.000000 -2.241573
v -22.499998 0.000000 -2.241573
vn -0.0000 1.0000 -0.0000
vt 0.748047 0.751969
vt 0.996094 0.751969
vt 0.996094 1.003937
vt 0.748047 1.003937
vt 0.251953 0.751969
vt 0.500000 0.751969
vt 0.500000 1.003937
vt 0.251953 1.003937
vt 0.251953 0.248031
vt 0.500000 0.248032
vt 0.500000 0.500000
vt 0.251953 0.500000
vt 0.748047 0.248032
vt 0.996094 0.248032
vt 0.996094 0.500000
vt 0.748047 0.500000
vt 0.500000 -0.003937
vt 0.748047 -0.003937
vt 0.996094 -0.003937
vt 0.003906 0.248031
vt 0.003906 0.500000
vt 0.003906 -0.003937
vt 0.251953 -0.003937
vt 0.003906 0.751968
vt 0.003906 1.003937
s 0
usemtl floor_outer2
f 25/1/1 12/2/1 4/3/1 15/4/1
f 24/5/1 16/6/1 6/7/1 13/8/1
f 23/9/1 19/10/1 9/11/1 20/12/1
f 22/13/1 18/14/1 8/15/1 21/16/1
f 19/10/1 22/13/1 21/16/1 9/11/1
f 5/17/1 11/18/1 22/13/1 19/10/1
f 11/18/1 2/19/1 18/14/1 22/13/1
f 10/20/1 23/9/1 20/12/1 7/21/1
f 1/22/1 14/23/1 23/9/1 10/20/1
f 14/23/1 5/17/1 19/10/1 23/9/1
f 17/24/1 24/5/1 13/8/1 3/25/1
f 7/21/1 20/12/1 24/5/1 17/24/1
f 20/12/1 9/11/1 16/6/1 24/5/1
f 16/6/1 25/1/1 15/4/1 6/7/1
f 9/11/1 21/16/1 25/1/1 16/6/1
f 21/16/1 8/15/1 12/2/1 25/1/1
