# Blender 5.1.0
# www.blender.org
mtllib bin.mtl
o bin
v -20.225769 0.047357 14.658535
v -20.234922 0.713004 14.667690
v -20.225769 0.047357 14.253250
v -20.234922 0.713004 14.244099
v -19.820484 0.047357 14.658535
v -19.811331 0.713004 14.667690
v -19.820484 0.047357 14.253250
v -19.811331 0.713004 14.244099
v -20.292616 0.713004 14.725384
v -20.292616 0.713004 14.186405
v -19.753637 0.713004 14.186405
v -19.753637 0.713004 14.725384
v -20.234922 0.263474 14.667690
v -20.234922 0.263474 14.244099
v -19.811331 0.263474 14.244099
v -19.811331 0.263474 14.667690
v -20.225769 0.047357 14.335102
v -20.225769 0.047357 14.576683
v -20.292616 0.713004 14.632389
v -20.292616 0.713004 14.279396
v -19.820484 0.047357 14.576683
v -19.820484 0.047357 14.335102
v -19.753637 0.713004 14.279396
v -19.753637 0.713004 14.632389
v -20.234922 0.713004 14.632389
v -20.234922 0.713004 14.279396
v -19.811331 0.713004 14.279396
v -19.811331 0.713004 14.632389
v -20.234922 0.263474 14.632389
v -20.234922 0.263474 14.279396
v -19.811331 0.263474 14.279396
v -19.811331 0.263474 14.632389
v -19.902336 0.047357 14.253250
v -20.143917 0.047357 14.253250
v -20.199623 0.713004 14.186405
v -19.846630 0.713004 14.186405
v -20.143917 0.047357 14.658535
v -19.902336 0.047357 14.658535
v -19.846630 0.713004 14.725384
v -20.199623 0.713004 14.725384
v -20.199623 0.713004 14.244099
v -19.846630 0.713004 14.244099
v -19.846630 0.713004 14.667690
v -20.199623 0.713004 14.667690
v -20.199623 0.263474 14.244099
v -19.846630 0.263474 14.244099
v -19.846630 0.263474 14.667690
v -20.199623 0.263474 14.667690
v -20.199623 0.263474 14.279396
v -19.846630 0.263474 14.279396
v -20.199623 0.263474 14.632389
v -19.846630 0.263474 14.632389
v -19.854258 0.047357 14.335102
v -20.191996 0.047357 14.335102
v -19.854258 0.047357 14.576683
v -20.191996 0.047357 14.576683
v -20.261303 0.882188 14.299904
v -20.261303 0.882188 14.217716
v -19.867138 0.882188 14.217716
v -19.784950 0.882188 14.217716
v -19.784950 0.882188 14.611881
v -19.784950 0.882188 14.694069
v -20.179115 0.882188 14.694069
v -20.261303 0.882188 14.694069
v -20.210312 0.882188 14.299904
v -20.210312 0.882188 14.268707
v -19.867138 0.882188 14.268707
v -19.835939 0.882188 14.268707
v -19.835939 0.882188 14.611881
v -19.835939 0.882188 14.643078
v -20.179115 0.882188 14.643078
v -20.210312 0.882188 14.643078
v -20.261303 0.882188 14.611881
v -19.784950 0.882188 14.299904
v -20.210312 0.882188 14.611881
v -19.835939 0.882188 14.299904
v -20.179115 0.882188 14.217716
v -19.867138 0.882188 14.694069
v -20.179115 0.882188 14.268707
v -19.867138 0.882188 14.643078
v -20.223221 0.931973 14.321037
v -20.223221 0.931973 14.249985
v -19.882460 0.931973 14.249985
v -19.811407 0.931973 14.249985
v -19.811407 0.931973 14.590748
v -19.811407 0.931973 14.661800
v -20.152168 0.931973 14.661800
v -20.223221 0.931973 14.661800
v -20.223221 0.931973 14.590748
v -19.811407 0.931973 14.321037
v -20.152168 0.931973 14.249985
v -19.882460 0.931973 14.661800
v -20.284864 0.635813 14.717632
v -20.284864 0.635813 14.194157
v -19.761389 0.635813 14.194157
v -19.761389 0.635813 14.717632
v -19.761389 0.635813 14.285858
v -19.761389 0.635813 14.625931
v -20.284864 0.635813 14.625931
v -20.284864 0.635813 14.285858
v -19.853090 0.635813 14.717632
v -20.193163 0.635813 14.717632
v -20.193163 0.635813 14.194157
v -19.853090 0.635813 14.194157
v -20.255316 0.341585 14.223705
v -19.790937 0.341585 14.223705
v -19.790937 0.341585 14.688084
v -19.790937 0.341585 14.310478
v -19.790937 0.341585 14.601307
v -20.255316 0.341585 14.601307
v -20.255316 0.341585 14.310478
v -19.877712 0.341585 14.688084
v -20.168541 0.341585 14.688084
v -20.168541 0.341585 14.223705
v -19.877712 0.341585 14.223705
v -20.255316 0.341585 14.688084
vn -0.9950 -0.0999 -0.0000
vn -0.0000 -0.0999 -0.9950
vn 0.9950 -0.0999 -0.0000
vn -0.0000 -0.0999 0.9950
vn -0.0000 -1.0000 -0.0000
vn -0.0000 -0.0000 -1.0000
vn -0.0000 -0.1203 -0.9927
vn 0.9896 -0.1440 -0.0000
vn -0.0000 -0.1439 0.9896
vn -0.0000 -0.1203 0.9927
vn -0.0000 1.0000 -0.0000
vn -0.0000 -0.0000 1.0000
vn -1.0000 -0.0000 -0.0000
vn 1.0000 -0.0000 -0.0000
vn -0.0000 0.1820 -0.9833
vn 0.9833 0.1820 -0.0000
vn -0.0000 0.1820 0.9833
vn -0.7943 0.6076 -0.0000
vn -0.9896 -0.1439 -0.0000
vn -0.9927 -0.1203 -0.0000
vn -0.0000 -0.1440 -0.9896
vn -0.9833 0.1820 -0.0000
vn 0.9927 -0.1203 -0.0000
vn -0.0000 0.5439 -0.8391
vn -0.0000 0.5439 0.8392
vn 0.8831 0.4693 -0.0000
vn -0.0000 0.5439 -0.8392
vn -0.0000 0.5439 0.8391
vt 0.168452 0.494389
vt 0.170659 0.467908
vt 0.202439 0.467908
vt 0.199790 0.494389
vt 0.418424 0.130043
vt 0.420631 0.103828
vt 0.452411 0.103828
vt 0.449762 0.130043
vt 0.178214 0.129778
vt 0.180422 0.103513
vt 0.212202 0.103513
vt 0.209552 0.129778
vt 0.408661 0.496311
vt 0.410869 0.470096
vt 0.442649 0.470096
vt 0.440000 0.496311
vt 0.296190 0.870771
vt 0.296190 0.882313
vt 0.268218 0.882313
vt 0.268218 0.854341
vt 0.641125 0.619957
vt 0.653188 0.619957
vt 0.653188 0.773392
vt 0.641125 0.773392
vt 0.947520 0.355656
vt 0.928012 0.352797
vt 0.928012 0.294787
vt 0.945253 0.297313
vt 0.653188 0.353091
vt 0.641125 0.353091
vt 0.634116 0.295620
vt 0.644778 0.295620
vt 0.721267 0.085336
vt 0.709204 0.085336
vt 0.717614 0.028008
vt 0.728276 0.028008
vt 0.925464 0.949032
vt 0.905956 0.951890
vt 0.908223 0.893548
vt 0.925464 0.891021
vt 0.721267 0.646292
vt 0.721267 0.658355
vt 0.709204 0.658355
vt 0.709204 0.646292
vt 0.841901 0.085336
vt 0.853965 0.085336
vt 0.853965 0.238771
vt 0.841901 0.238771
vt 0.641125 0.086181
vt 0.653188 0.086181
vt 0.653188 0.239604
vt 0.641125 0.239604
vt 0.653188 0.506613
vt 0.641125 0.506613
vt 0.508427 0.353091
vt 0.520491 0.353091
vt 0.520491 0.506613
vt 0.508427 0.506613
vt 0.508427 0.086181
vt 0.520491 0.086181
vt 0.520491 0.239604
vt 0.508427 0.239604
vt 0.853965 0.646292
vt 0.853965 0.658355
vt 0.841901 0.658355
vt 0.841901 0.646292
vt 0.413623 0.045550
vt 0.441710 0.045550
vt 0.179473 0.864544
vt 0.179473 0.743910
vt 0.199190 0.743910
vt 0.199190 0.864544
vt 0.516837 0.295620
vt 0.527499 0.295620
vt 0.925672 0.714371
vt 0.925672 0.835005
vt 0.905956 0.835005
vt 0.905956 0.714371
vt 0.406722 0.854341
vt 0.406722 0.882313
vt 0.378750 0.882313
vt 0.378750 0.870771
vt 0.030657 0.129778
vt 0.028008 0.103513
vt 0.059788 0.103513
vt 0.061996 0.129778
vt 0.020895 0.494389
vt 0.018246 0.467908
vt 0.050026 0.467908
vt 0.052233 0.494389
vt 0.378750 0.743808
vt 0.378750 0.755350
vt 0.296190 0.755350
vt 0.296190 0.743808
vt 0.406722 0.743808
vt 0.406722 0.771781
vt 0.841901 0.513595
vt 0.841901 0.525658
vt 0.721267 0.525658
vt 0.721267 0.513595
vt 0.853965 0.513595
vt 0.853965 0.525658
vt 0.721267 0.238771
vt 0.709204 0.238771
vt 0.709204 0.525658
vt 0.709204 0.513595
vt 0.038709 0.045342
vt 0.066796 0.045342
vt 0.047725 0.743910
vt 0.047725 0.864544
vt 0.028008 0.864544
vt 0.028008 0.743910
vt 0.403861 0.411817
vt 0.431948 0.411817
vt 0.103741 0.864544
vt 0.103741 0.743910
vt 0.123457 0.743910
vt 0.123457 0.864544
vt 0.508427 0.619957
vt 0.520491 0.619957
vt 0.520491 0.773392
vt 0.508427 0.773392
vt 0.268218 0.771781
vt 0.268218 0.743808
vt 0.261104 0.496311
vt 0.258455 0.470096
vt 0.290235 0.470096
vt 0.292443 0.496311
vt 0.270867 0.130043
vt 0.268218 0.103828
vt 0.299998 0.103828
vt 0.302205 0.130043
vt 0.802154 0.911123
vt 0.802154 0.921785
vt 0.784728 0.939210
vt 0.784728 0.911123
vt 0.928012 0.439759
vt 0.928012 0.429097
vt 0.945437 0.411672
vt 0.945437 0.439759
vt 0.045434 0.920560
vt 0.045434 0.931222
vt 0.028008 0.948647
vt 0.028008 0.920560
vt 0.112112 0.931222
vt 0.112112 0.920560
vt 0.129537 0.920560
vt 0.129537 0.948647
vt 0.056095 0.931222
vt 0.056095 0.948647
vt 0.057034 0.410714
vt 0.028947 0.410714
vt 0.039975 0.394389
vt 0.064256 0.394389
vt 0.812816 0.921785
vt 0.812816 0.939210
vt 0.516837 0.028008
vt 0.527499 0.028008
vt 0.269156 0.411817
vt 0.297244 0.411817
vt 0.603470 0.888114
vt 0.583957 0.890939
vt 0.586224 0.831904
vt 0.603470 0.829408
vt 0.929489 0.571605
vt 0.909981 0.574463
vt 0.912248 0.516121
vt 0.929489 0.513595
vt 0.516837 0.562629
vt 0.527499 0.562629
vt 0.173413 0.045342
vt 0.201501 0.045342
vt 0.929490 0.088994
vt 0.909981 0.086142
vt 0.909981 0.028008
vt 0.927223 0.030529
vt 0.634116 0.028008
vt 0.644778 0.028008
vt 0.728712 0.971992
vt 0.709204 0.969133
vt 0.709204 0.911123
vt 0.726446 0.913649
vt 0.834893 0.028008
vt 0.845555 0.028008
vt 0.929490 0.203144
vt 0.909981 0.205996
vt 0.912248 0.147531
vt 0.929490 0.145010
vt 0.163651 0.410714
vt 0.191738 0.410714
vt 0.527940 0.890939
vt 0.508427 0.888114
vt 0.508427 0.829408
vt 0.525673 0.831904
vt 0.278919 0.045550
vt 0.307006 0.045550
vt 0.634116 0.562629
vt 0.644778 0.562629
vt 0.156428 0.394389
vt 0.849940 0.830825
vt 0.849940 0.855107
vt 0.825658 0.855107
vt 0.733486 0.855107
vt 0.709204 0.855107
vt 0.709204 0.830825
vt 0.709204 0.738653
vt 0.709204 0.714371
vt 0.733486 0.714371
vt 0.825658 0.714371
vt 0.849940 0.714371
vt 0.849940 0.738653
vt 0.291933 0.028008
vt 0.316215 0.028008
vt 0.302480 0.394276
vt 0.394652 0.394276
vt 0.049737 0.028008
vt 0.074019 0.028008
vt 0.166191 0.028008
vt 0.180710 0.394389
vt 0.190473 0.028008
vt 0.418934 0.394276
vt 0.408387 0.028008
vt 0.432669 0.028008
vt 0.278198 0.394276
vt 0.871996 0.457578
vt 0.843908 0.440153
vt 0.843908 0.457578
vt 0.737291 0.457578
vt 0.737291 0.440153
vt 0.709204 0.457578
vt 0.726630 0.440153
vt 0.726630 0.429491
vt 0.709204 0.429491
vt 0.709204 0.322874
vt 0.726630 0.322874
vt 0.726630 0.312212
vt 0.737291 0.312212
vt 0.737291 0.294787
vt 0.843908 0.294787
vt 0.843908 0.312212
vt 0.854570 0.312212
vt 0.854570 0.322874
vt 0.871996 0.322874
vt 0.871996 0.429491
vt 0.854570 0.429491
vt 0.854570 0.440153
vt 0.302252 0.269017
vt 0.293837 0.169093
vt 0.410056 0.169093
vt 0.401641 0.269017
vt 0.272597 0.269017
vt 0.262499 0.169093
vt 0.300857 0.617155
vt 0.292443 0.517231
vt 0.408661 0.517231
vt 0.400247 0.617155
vt 0.271202 0.617155
vt 0.261104 0.517231
vt 0.060648 0.616245
vt 0.052233 0.515308
vt 0.168452 0.515308
vt 0.160037 0.616245
vt 0.030992 0.616245
vt 0.020895 0.515308
vt 0.062043 0.268941
vt 0.053628 0.168828
vt 0.169846 0.168828
vt 0.161432 0.268941
vt 0.032387 0.268941
vt 0.022289 0.168828
vt 0.440000 0.517231
vt 0.429902 0.617155
vt 0.201185 0.168828
vt 0.191087 0.268941
vt 0.441394 0.169093
vt 0.431297 0.269017
vt 0.199790 0.515308
vt 0.189692 0.616245
vt 0.151622 0.717181
vt 0.179595 0.717181
vt 0.393227 0.368942
vt 0.421199 0.368942
vt 0.153017 0.369055
vt 0.180989 0.369055
vt 0.391832 0.717079
vt 0.419804 0.717079
vt 0.042485 0.369055
vt 0.070457 0.369055
vt 0.041090 0.717181
vt 0.069063 0.717181
vt 0.281300 0.717079
vt 0.309272 0.717079
vt 0.282694 0.368942
vt 0.310667 0.368942
s 0
usemtl bin.002
f 100/1/1 20/2/1 10/3/1 94/4/1
f 104/5/2 36/6/2 11/7/2 95/8/2
f 98/9/3 24/10/3 12/11/3 96/12/3
f 102/13/4 40/14/4 9/15/4 93/16/4
f 55/17/5 21/18/5 5/19/5 38/20/5
f 43/21/6 6/22/6 16/23/6 47/24/6
f 24/25/7 28/26/7 69/27/7 61/28/7
f 2/29/8 25/30/8 75/31/8 72/32/8
f 42/33/9 8/34/9 68/35/9 67/36/9
f 27/37/10 23/38/10 74/39/10 76/40/10
f 51/41/11 29/42/11 13/43/11 48/44/11
f 41/45/12 4/46/12 14/47/12 45/48/12
f 27/49/13 8/50/13 15/51/13 31/52/13
f 25/30/14 2/29/14 13/53/14 29/54/14
f 4/55/14 26/56/14 30/57/14 14/58/14
f 26/56/14 25/30/14 29/54/14 30/57/14
f 6/59/13 28/60/13 32/61/13 16/62/13
f 28/60/13 27/49/13 31/52/13 32/61/13
f 45/63/11 14/64/11 30/65/11 49/66/11
f 49/66/11 30/65/11 29/42/11 51/41/11
f 11/7/15 36/6/15 59/67/15 60/68/15
f 27/69/11 28/70/11 24/71/11 23/72/11
f 26/56/8 4/55/8 66/73/8 65/74/8
f 25/75/11 26/76/11 20/77/11 19/78/11
f 33/79/5 7/80/5 22/81/5 53/82/5
f 53/82/5 22/81/5 21/18/5 55/17/5
f 95/83/3 11/84/3 23/85/3 97/86/3
f 97/86/3 23/85/3 24/10/3 98/9/3
f 93/87/1 9/88/1 19/89/1 99/90/1
f 99/90/1 19/89/1 20/2/1 100/1/1
f 17/91/5 54/92/5 56/93/5 18/94/5
f 54/92/5 53/82/5 55/17/5 56/93/5
f 3/95/5 34/96/5 54/92/5 17/91/5
f 34/96/5 33/79/5 53/82/5 54/92/5
f 31/97/11 50/98/11 52/99/11 32/100/11
f 50/98/11 49/66/11 51/41/11 52/99/11
f 15/101/11 46/102/11 50/98/11 31/97/11
f 46/102/11 45/63/11 49/66/11 50/98/11
f 8/34/12 42/33/12 46/103/12 15/104/12
f 42/33/12 41/45/12 45/48/12 46/103/12
f 32/100/11 52/99/11 47/105/11 16/106/11
f 52/99/11 51/41/11 48/44/11 47/105/11
f 23/85/16 11/84/16 60/107/16 74/108/16
f 43/109/11 44/110/11 40/111/11 39/112/11
f 9/15/17 40/14/17 63/113/17 64/114/17
f 41/115/11 42/116/11 36/117/11 35/118/11
f 2/119/6 44/120/6 48/121/6 13/122/6
f 44/120/6 43/21/6 47/24/6 48/121/6
f 18/94/5 56/93/5 37/123/5 1/124/5
f 56/93/5 55/17/5 38/20/5 37/123/5
f 96/125/4 12/126/4 39/127/4 101/128/4
f 101/128/4 39/127/4 40/14/4 102/13/4
f 94/129/2 10/130/2 35/131/2 103/132/2
f 103/132/2 35/131/2 36/6/2 104/5/2
f 65/133/11 66/134/11 58/135/11 57/136/11
f 69/137/11 70/138/11 62/139/11 61/140/11
f 71/141/11 72/142/11 64/143/11 63/144/11
f 68/145/11 76/146/11 74/147/11 60/148/11
f 72/142/11 75/149/11 73/150/11 64/143/11
f 73/151/18 64/152/18 88/153/18 89/154/18
f 66/134/11 79/155/11 77/156/11 58/135/11
f 28/60/19 6/59/19 70/157/19 69/158/19
f 39/127/17 12/126/17 62/159/17 78/160/17
f 43/161/20 39/162/20 78/163/20 80/164/20
f 25/165/7 19/166/7 73/167/7 75/168/7
f 44/120/21 2/119/21 72/169/21 71/170/21
f 19/89/22 9/88/22 64/152/22 73/151/22
f 12/11/16 24/10/16 61/171/16 62/172/16
f 40/173/23 44/174/23 71/175/23 63/176/23
f 8/50/19 27/49/19 76/177/19 68/178/19
f 20/179/10 26/180/10 65/181/10 57/182/10
f 4/46/9 41/45/9 79/183/9 66/184/9
f 41/185/23 35/186/23 77/187/23 79/188/23
f 10/3/22 20/2/22 57/189/22 58/190/22
f 36/191/20 42/192/20 67/193/20 59/194/20
f 35/131/15 10/130/15 58/195/15 77/196/15
f 6/22/21 43/21/21 80/197/21 70/198/21
f 57/189/18 73/151/18 89/154/18 81/199/18
f 91/200/11 82/201/11 81/202/11 89/203/11 88/204/11 87/205/11 92/206/11 86/207/11 85/208/11 90/209/11 84/210/11 83/211/11
f 77/196/24 58/195/24 82/212/24 91/213/24
f 63/113/25 78/160/25 92/214/25 87/215/25
f 74/108/26 60/107/26 84/216/26 90/217/26
f 61/171/26 74/108/26 90/217/26 85/218/26
f 58/190/18 57/189/18 81/199/18 82/219/18
f 62/172/26 61/171/26 85/218/26 86/220/26
f 64/114/25 63/113/25 87/215/25 88/221/25
f 59/67/27 77/196/27 91/213/27 83/222/27
f 59/67/24 83/222/24 84/223/24 60/68/24
f 62/159/28 86/224/28 92/214/28 78/160/28
f 60/225/5 76/226/5 74/227/5 61/228/5 69/229/5 62/230/5 70/231/5 80/232/5 78/233/5 63/234/5 71/235/5 72/236/5 75/237/5 73/238/5 57/239/5 65/240/5 66/241/5 79/242/5 77/243/5 59/244/5 67/245/5 68/246/5
f 114/247/2 103/248/2 104/249/2 115/250/2
f 105/251/2 94/252/2 103/248/2 114/247/2
f 112/253/4 101/254/4 102/255/4 113/256/4
f 107/257/4 96/258/4 101/254/4 112/253/4
f 110/259/1 99/260/1 100/261/1 111/262/1
f 116/263/1 93/264/1 99/260/1 110/259/1
f 108/265/3 97/266/3 98/267/3 109/268/3
f 106/269/3 95/270/3 97/266/3 108/265/3
f 113/256/4 102/255/4 93/271/4 116/272/4
f 109/268/3 98/267/3 96/273/3 107/274/3
f 115/250/2 104/249/2 95/275/2 106/276/2
f 111/262/1 100/261/1 94/277/1 105/278/1
f 17/279/1 111/262/1 105/278/1 3/280/1
f 33/281/2 115/250/2 106/276/2 7/282/2
f 21/283/3 109/268/3 107/274/3 5/284/3
f 37/285/4 113/256/4 116/272/4 1/286/4
f 7/287/3 106/269/3 108/265/3 22/288/3
f 22/288/3 108/265/3 109/268/3 21/283/3
f 1/289/1 116/263/1 110/259/1 18/290/1
f 18/290/1 110/259/1 111/262/1 17/279/1
f 5/291/4 107/257/4 112/253/4 38/292/4
f 38/292/4 112/253/4 113/256/4 37/285/4
f 3/293/2 105/251/2 114/247/2 34/294/2
f 34/294/2 114/247/2 115/250/2 33/281/2
