# Blender 5.1.0
# www.blender.org
mtllib pipe_double_grime.mtl
o pipe_double_grime
v -17.071917 0.176948 13.180515
v -17.036633 0.162333 13.180515
v -17.022018 0.127050 13.180515
v -17.036633 0.091766 13.180515
v -17.071917 0.077151 13.180515
v -17.107201 0.091766 13.180515
v -17.121815 0.127050 13.180515
v -17.107201 0.162333 13.180515
v -17.036633 0.162333 13.680515
v -17.071917 0.176948 13.680515
v -17.022018 0.127050 13.680515
v -17.036633 0.091766 13.680515
v -17.071917 0.077151 13.680515
v -17.107201 0.091766 13.680515
v -17.121815 0.127050 13.680515
v -17.107201 0.162333 13.680515
v -17.071917 0.176948 13.660824
v -17.036633 0.162333 13.660824
v -17.022018 0.127050 13.660824
v -17.036633 0.091766 13.660824
v -17.071917 0.077151 13.660824
v -17.107201 0.091766 13.660824
v -17.121815 0.127050 13.660824
v -17.107201 0.162333 13.660824
v -17.028063 0.170904 13.680515
v -17.071917 0.189070 13.680515
v -17.009897 0.127050 13.680515
v -17.028063 0.083195 13.680515
v -17.071917 0.065030 13.680515
v -17.115770 0.083195 13.680515
v -17.133936 0.127050 13.680515
v -17.115770 0.170904 13.680515
v -17.071917 0.189070 13.660824
v -17.028063 0.170904 13.660824
v -17.009897 0.127050 13.660824
v -17.028063 0.083195 13.660824
v -17.071917 0.065030 13.660824
v -17.115770 0.083195 13.660824
v -17.133936 0.127050 13.660824
v -17.115770 0.170904 13.660824
v -17.036633 0.162333 13.199875
v -17.022018 0.127050 13.199875
v -17.036633 0.091766 13.199875
v -17.071917 0.077151 13.199875
v -17.107201 0.091766 13.199875
v -17.121815 0.127050 13.199875
v -17.107201 0.162333 13.199875
v -17.071917 0.176948 13.199875
v -17.071917 0.188698 13.180515
v -17.028324 0.170641 13.180515
v -17.028324 0.170641 13.199875
v -17.010269 0.127050 13.180515
v -17.010269 0.127050 13.199875
v -17.028324 0.083458 13.180515
v -17.028324 0.083458 13.199875
v -17.071917 0.065402 13.180515
v -17.071917 0.065402 13.199875
v -17.115509 0.083458 13.180515
v -17.115509 0.083458 13.199875
v -17.133564 0.127050 13.180515
v -17.133564 0.127050 13.199875
v -17.115509 0.170641 13.180515
v -17.115509 0.170641 13.199875
v -17.071917 0.188698 13.199875
vn -0.0000 -0.0000 1.0000
vn -0.0000 0.0001 -1.0000
vn -0.0000 -0.0000 -1.0000
vn -0.3827 0.9239 -0.0000
vn -0.9239 0.3827 -0.0000
vn -0.9239 -0.3827 -0.0000
vn -0.3827 -0.9239 -0.0000
vn 0.3827 -0.9239 -0.0000
vn 0.9239 -0.3827 -0.0000
vn 0.9239 0.3827 -0.0000
vn 0.3827 0.9239 -0.0000
vn -0.0000 -0.0001 -1.0000
vn -0.0000 0.0001 1.0000
vn -0.0000 -0.0001 1.0000
vt 0.080294 0.080294
vt 0.010000 0.250000
vt 0.250000 0.984456
vt 0.375000 0.984456
vt 0.250000 0.010000
vt 0.125000 0.984456
vt 0.419706 0.080294
vt 0.000000 0.984456
vt 0.490000 0.250000
vt 0.247460 0.490000
vt 0.417165 0.419706
vt 0.487460 0.250000
vt 0.417165 0.080294
vt 0.247460 0.010000
vt 0.077754 0.080294
vt 0.007460 0.250000
vt 0.077754 0.419706
vt 0.419706 0.419706
vt 0.250000 0.490000
vt 0.080294 0.419706
vt 0.125000 0.588903
vt 0.000000 0.588903
vt 0.250000 0.588903
vt 0.375000 0.588903
vt 0.500000 0.588903
vt 0.500000 0.984456
vt 0.625000 0.588903
vt 0.625000 0.984456
vt 0.750000 0.588903
vt 0.750000 0.984456
vt 0.875000 0.588903
vt 0.875000 0.984456
vt 1.000000 0.588903
vt 1.000000 0.984456
vt 0.875000 1.000000
vt 0.750000 1.000000
vt 0.625000 1.000000
vt 0.500000 1.000000
vt 0.375000 1.000000
vt 0.250000 1.000000
vt 0.125000 1.000000
vt 0.000000 1.000000
vt 1.000000 1.000000
vt 1.000000 0.500000
vt 0.875000 0.500000
vt 0.750000 0.500000
vt 0.625000 0.500000
vt 0.500000 0.500000
vt 0.375000 0.500000
vt 0.250000 0.500000
vt 0.125000 0.500000
vt 0.000000 0.500000
s 0
usemtl pipe_double_grime
f 14/1/1 15/2/1 31/2/1 30/1/1
f 23/3/2 22/4/2 38/4/2 39/3/2
f 13/5/1 14/1/1 30/1/1 29/5/1
f 24/6/3 23/3/3 39/3/3 40/6/3
f 12/7/1 13/5/1 29/5/1 28/7/1
f 17/8/3 24/6/3 40/6/3 33/8/3
f 11/9/1 12/7/1 28/7/1 27/9/1
f 1/10/3 2/11/3 3/12/3 4/13/3 5/14/3 6/15/3 7/16/3 8/17/3
f 9/18/1 10/19/1 16/20/1 15/2/1 14/1/1 13/5/1 12/7/1 11/9/1
f 47/21/4 24/6/4 17/8/4 48/22/4
f 46/23/5 23/3/5 24/6/5 47/21/5
f 45/24/6 22/4/6 23/3/6 46/23/6
f 44/25/7 21/26/7 22/4/7 45/24/7
f 43/27/8 20/28/8 21/26/8 44/25/8
f 42/29/9 19/30/9 20/28/9 43/27/9
f 41/31/10 18/32/10 19/30/10 42/29/10
f 48/33/11 17/34/11 18/32/11 41/31/11
f 18/32/3 17/34/3 33/34/3 34/32/3
f 25/35/10 27/36/10 35/30/10 34/32/10
f 27/36/9 28/37/9 36/28/9 35/30/9
f 28/37/8 29/38/8 37/26/8 36/28/8
f 29/38/7 30/39/7 38/4/7 37/26/7
f 30/39/6 31/40/6 39/3/6 38/4/6
f 31/40/5 32/41/5 40/6/5 39/3/5
f 32/41/4 26/42/4 33/8/4 40/6/4
f 33/34/11 26/43/11 25/35/11 34/32/11
f 22/4/3 21/26/3 37/26/3 38/4/3
f 15/2/1 16/20/1 32/20/1 31/2/1
f 21/26/3 20/28/3 36/28/3 37/26/3
f 16/20/1 10/19/1 26/19/1 32/20/1
f 20/28/3 19/30/3 35/30/3 36/28/3
f 10/19/1 9/18/1 25/18/1 26/19/1
f 19/30/12 18/32/12 34/32/12 35/30/12
f 9/18/1 11/9/1 27/9/1 25/18/1
f 6/15/3 5/14/3 56/14/3 58/15/3
f 42/29/13 43/27/13 55/27/13 53/29/13
f 2/11/3 1/10/3 49/10/3 50/11/3
f 41/31/1 42/29/1 53/29/1 51/31/1
f 1/10/3 8/17/3 62/17/3 49/10/3
f 48/33/1 41/31/1 51/31/1 64/33/1
f 5/14/3 4/13/3 54/13/3 56/14/3
f 47/21/1 48/22/1 64/22/1 63/21/1
f 49/44/11 64/33/11 51/31/11 50/45/11
f 50/45/10 51/31/10 53/29/10 52/46/10
f 52/46/9 53/29/9 55/27/9 54/47/9
f 54/47/8 55/27/8 57/25/8 56/48/8
f 56/48/7 57/25/7 59/24/7 58/49/7
f 58/49/6 59/24/6 61/23/6 60/50/6
f 60/50/5 61/23/5 63/21/5 62/51/5
f 62/51/4 63/21/4 64/22/4 49/52/4
f 43/27/1 44/25/1 57/25/1 55/27/1
f 3/12/3 2/11/3 50/11/3 52/12/3
f 7/16/3 6/15/3 58/15/3 60/16/3
f 44/25/1 45/24/1 59/24/1 57/25/1
f 45/24/1 46/23/1 61/23/1 59/24/1
f 4/13/3 3/12/3 52/12/3 54/13/3
f 46/23/14 47/21/14 63/21/14 61/23/14
f 8/17/3 7/16/3 60/16/3 62/17/3
