# Blender 5.1.0
# www.blender.org
mtllib wet_floor.mtl
o wet_floor
v -20.344467 1.133196 13.483212
v -20.344467 1.133196 12.898148
v -20.223146 1.133196 13.483212
v -20.223146 1.133196 12.898148
v -20.283806 1.133196 12.898148
v -20.283806 1.133196 13.483212
v -20.748669 0.002420 12.898148
v -20.748669 0.002420 13.483212
v -20.688007 0.002420 12.898148
v -20.688007 0.002420 13.483212
v -19.788254 0.000477 13.483212
v -19.788254 0.000477 12.898148
v -19.848915 0.000477 13.483212
v -19.848915 0.000477 12.898148
v -20.330568 1.185619 13.483212
v -20.316055 1.240356 13.428474
v -20.316055 1.240356 12.952881
v -20.330568 1.185619 12.898148
v -20.251558 1.240356 13.428474
v -20.237045 1.185619 13.483212
v -20.237045 1.185619 12.898148
v -20.251558 1.240356 12.952881
v -20.283806 1.185619 12.898148
v -20.283806 1.240356 12.952881
v -20.283806 1.185619 13.483212
v -20.283806 1.240356 13.428474
v -20.344467 1.133196 13.190678
v -20.223146 1.133196 13.190678
v -20.283806 1.133196 13.190678
v -20.748669 0.002420 13.190678
v -20.688007 0.002420 13.190678
v -19.788254 0.000477 13.190678
v -19.848915 0.000477 13.190678
v -20.005699 0.566837 13.483212
v -20.005699 0.566837 12.898148
v -20.066360 0.566837 12.898148
v -20.066360 0.566837 13.483212
v -20.066360 0.566837 13.190678
v -20.005699 0.566837 13.190678
v -20.546568 0.567808 12.898148
v -20.546568 0.567808 13.483212
v -20.485907 0.567808 13.483212
v -20.485907 0.567808 12.898148
v -20.485907 0.567808 13.190678
v -20.546568 0.567808 13.190678
vn 0.9336 0.3584 -0.0000
vn -0.9416 0.3366 -0.0000
vn -0.0000 -1.0000 -0.0000
vn -0.0000 -0.0000 1.0000
vn 0.9416 -0.3366 -0.0000
vn -0.0000 -0.0000 -1.0000
vn -0.9336 -0.3584 -0.0000
vn -0.0000 0.7071 -0.7071
vn -0.0000 0.7071 0.7071
vn -0.9666 0.2563 -0.0000
vn -0.0000 1.0000 -0.0000
vn 0.9666 0.2563 -0.0000
vt 0.500000 0.747864
vt 0.611922 0.747864
vt 0.611922 0.979638
vt 0.500000 0.979638
vt 0.118797 0.703272
vt 0.230719 0.703272
vt 0.230719 0.877500
vt 0.118797 0.877500
vt 0.354171 0.606587
vt 0.330962 0.606587
vt 0.330962 0.494665
vt 0.354171 0.494665
vt 0.655465 0.243453
vt 0.678674 0.243503
vt 0.755530 0.459984
vt 0.732321 0.459934
vt 0.881203 0.188889
vt 0.993124 0.188889
vt 0.993124 0.370902
vt 0.881203 0.370902
vt 0.083731 0.264433
vt 0.106940 0.264382
vt 0.030084 0.480864
vt 0.006875 0.480914
vt 0.317211 0.606587
vt 0.294003 0.606587
vt 0.294003 0.494665
vt 0.317211 0.494665
vt 0.267457 0.264407
vt 0.290665 0.264357
vt 0.374327 0.480864
vt 0.351119 0.480914
vt 0.471740 0.243427
vt 0.494948 0.243478
vt 0.411287 0.459984
vt 0.388078 0.459934
vt 0.737595 0.705844
vt 0.849517 0.705844
vt 0.849517 0.937953
vt 0.737595 0.937953
vt 0.183707 0.006902
vt 0.196045 0.006876
vt 0.201642 0.027805
vt 0.183752 0.027844
vt 0.262361 0.515607
vt 0.250023 0.515607
vt 0.244470 0.494665
vt 0.262361 0.494665
vt 0.171369 0.006929
vt 0.165861 0.027883
vt 0.274699 0.515607
vt 0.280252 0.494665
vt 0.578610 0.026971
vt 0.578653 0.006914
vt 0.596544 0.006953
vt 0.601818 0.027021
vt 0.006875 0.529044
vt 0.006875 0.512226
vt 0.027817 0.494665
vt 0.209777 0.494665
vt 0.230719 0.512226
vt 0.230719 0.529044
vt 0.118797 0.529044
vt 0.262361 0.697567
vt 0.250023 0.697567
vt 0.160587 0.047951
vt 0.183795 0.047901
vt 0.274699 0.697567
vt 0.388078 0.516089
vt 0.388078 0.495370
vt 0.409020 0.473735
vt 0.590980 0.473735
vt 0.611922 0.495370
vt 0.611922 0.516089
vt 0.500000 0.516089
vt 0.555401 0.026921
vt 0.560763 0.006875
vt 0.207004 0.047851
vt 0.625673 0.705844
vt 0.625673 0.937953
vt 0.317211 0.718509
vt 0.294003 0.718509
vt 0.769281 0.188889
vt 0.769281 0.370902
vt 0.354171 0.718509
vt 0.330962 0.718509
vt 0.006875 0.703272
vt 0.006875 0.877500
vt 0.388078 0.747864
vt 0.388078 0.979638
vt 0.625673 0.473735
vt 0.737595 0.473735
vt 0.849517 0.473735
vt 0.769281 0.006875
vt 0.881203 0.006875
vt 0.993124 0.006875
s 0
usemtl floor_sign
f 39/1/1 34/2/1 11/3/1 32/4/1
f 45/5/2 40/6/2 7/7/2 30/8/2
f 30/9/3 31/10/3 10/11/3 8/12/3
f 42/13/4 41/14/4 8/15/4 10/16/4
f 44/17/5 42/18/5 10/19/5 31/20/5
f 40/21/6 43/22/6 9/23/6 7/24/6
f 33/25/3 32/26/3 11/27/3 13/28/3
f 36/29/6 35/30/6 12/31/6 14/32/6
f 34/33/4 37/34/4 13/35/4 11/36/4
f 38/37/7 36/38/7 14/39/7 33/40/7
f 24/41/8 22/42/8 21/43/8 23/44/8
f 26/45/9 16/46/9 15/47/9 25/48/9
f 17/49/8 24/41/8 23/44/8 18/50/8
f 19/51/9 26/45/9 25/48/9 20/52/9
f 6/53/4 25/54/4 15/55/4 1/56/4
f 1/57/10 15/58/10 16/59/10 17/60/10 18/61/10 2/62/10 27/63/10
f 24/64/11 17/65/11 16/46/11 26/45/11
f 2/66/6 18/50/6 23/44/6 5/67/6
f 22/68/11 24/64/11 26/45/11 19/51/11
f 4/69/12 21/70/12 22/71/12 19/72/12 20/73/12 3/74/12 28/75/12
f 3/76/4 20/77/4 25/54/4 6/53/4
f 5/67/6 23/44/6 21/43/6 4/78/6
f 37/79/7 38/37/7 33/40/7 13/80/7
f 14/81/3 12/82/3 32/26/3 33/25/3
f 43/83/5 44/17/5 31/20/5 9/84/5
f 7/85/3 9/86/3 31/10/3 30/9/3
f 41/87/2 45/5/2 30/8/2 8/88/2
f 35/89/1 39/1/1 32/4/1 12/90/1
f 4/69/1 28/75/1 39/1/1 35/89/1
f 6/91/7 29/92/7 38/37/7 37/79/7
f 29/92/7 5/93/7 36/38/7 38/37/7
f 3/76/4 6/53/4 37/34/4 34/33/4
f 5/67/6 4/78/6 35/30/6 36/29/6
f 28/75/1 3/74/1 34/2/1 39/1/1
f 1/57/2 27/63/2 45/5/2 41/87/2
f 5/94/5 29/95/5 44/17/5 43/83/5
f 2/66/6 5/67/6 43/22/6 40/21/6
f 29/95/5 6/96/5 42/18/5 44/17/5
f 6/53/4 1/56/4 41/14/4 42/13/4
f 27/63/2 2/62/2 40/6/2 45/5/2
