# Blender 5.1.0
# www.blender.org
mtllib grate.mtl
o grate
v -19.080027 0.041931 14.428192
v -19.046051 0.051931 14.394218
v -19.080027 0.041931 13.928192
v -19.046051 0.051931 13.962166
v -18.580027 0.041931 14.428192
v -18.614002 0.051931 14.394218
v -18.580027 0.041931 13.928192
v -18.614002 0.051931 13.962166
v -19.080027 0.051931 14.428192
v -19.080027 0.051931 13.928192
v -18.580027 0.051931 13.928192
v -18.580027 0.051931 14.428192
v -19.046051 0.046801 14.394218
v -19.046051 0.046801 13.962166
v -18.614002 0.046801 13.962166
v -18.614002 0.046801 14.394218
vn -1.0000 -0.0000 -0.0000
vn -0.0000 -0.0000 -1.0000
vn 1.0000 -0.0000 -0.0000
vn -0.0000 -0.0000 1.0000
vn -0.0000 -1.0000 -0.0000
vn -0.0000 1.0000 -0.0000
vt 0.515359 0.927985
vt 0.505582 0.927985
vt 0.505582 0.439150
vt 0.515359 0.439150
vt 0.536300 0.927985
vt 0.526523 0.927985
vt 0.526523 0.439150
vt 0.536300 0.439150
vt 0.557241 0.927985
vt 0.547464 0.927985
vt 0.547464 0.439150
vt 0.557241 0.439150
vt 0.578182 0.927985
vt 0.568405 0.927985
vt 0.568405 0.439150
vt 0.578182 0.439150
vt 0.494418 0.005582
vt 0.494418 0.494418
vt 0.005582 0.494418
vt 0.005582 0.005582
vt 0.472180 0.951571
vt 0.472180 0.529168
vt 0.477196 0.529168
vt 0.477196 0.951571
vt 0.038798 0.961202
vt 0.461202 0.961202
vt 0.494418 0.994418
vt 0.005582 0.994418
vt 0.461202 0.538798
vt 0.494418 0.505582
vt 0.038798 0.538798
vt 0.005582 0.505582
vt 0.927985 0.005582
vt 0.927985 0.427985
vt 0.505582 0.427985
vt 0.505582 0.005582
vt 0.488360 0.951571
vt 0.488360 0.529168
vt 0.493376 0.529168
vt 0.493376 0.951571
vt 0.470248 0.948713
vt 0.470248 0.526310
vt 0.475263 0.526310
vt 0.475263 0.948713
vt 0.486428 0.948713
vt 0.486428 0.526310
vt 0.491443 0.526310
vt 0.491443 0.948713
s 0
usemtl grate
f 1/1/1 9/2/1 10/3/1 3/4/1
f 3/5/2 10/6/2 11/7/2 7/8/2
f 7/9/3 11/10/3 12/11/3 5/12/3
f 5/13/4 12/14/4 9/15/4 1/16/4
f 3/17/5 7/18/5 5/19/5 1/20/5
f 2/21/2 6/22/2 16/23/2 13/24/2
f 2/25/6 4/26/6 10/27/6 9/28/6
f 4/26/6 8/29/6 11/30/6 10/27/6
f 8/29/6 6/31/6 12/32/6 11/30/6
f 6/31/6 2/25/6 9/28/6 12/32/6
f 15/33/6 14/34/6 13/35/6 16/36/6
f 8/37/4 4/38/4 14/39/4 15/40/4
f 6/41/1 8/42/1 15/43/1 16/44/1
f 4/45/3 2/46/3 13/47/3 14/48/3
