# Blender 5.1.0
# www.blender.org
mtllib ceiling.mtl
o ceiling
v -21.000000 0.000000 -9.741573
v -19.000000 0.000000 -9.741573
v -21.000000 0.000000 -11.741573
v -19.000000 0.000000 -11.741573
v -21.000000 0.000000 -10.741573
v -20.000000 0.000000 -9.741573
v -19.000000 0.000000 -10.741573
v -20.000000 0.000000 -11.741573
v -20.000000 0.000000 -10.741573
v -21.000000 0.000000 -10.241573
v -19.500000 0.000000 -9.741573
v -19.000000 0.000000 -11.241573
v -20.500000 0.000000 -11.741573
v -21.000000 0.000000 -11.241573
v -20.500000 0.000000 -9.741573
v -19.000000 0.000000 -10.241573
v -19.500000 0.000000 -11.741573
v -20.000000 0.000000 -11.241573
v -20.000000 0.000000 -10.241573
v -20.500000 0.000000 -10.741573
v -19.500000 0.000000 -10.741573
v -19.500000 0.000000 -10.241573
v -20.500000 0.000000 -10.241573
v -20.500000 0.000000 -11.241573
v -19.500000 0.000000 -11.241573
vn -0.0000 1.0000 -0.0000
vt 0.750000 0.250000
vt 0.750000 0.000000
vt 1.000000 0.000000
vt 1.000000 0.250000
vt 0.750000 0.750000
vt 0.750000 0.500000
vt 1.000000 0.500000
vt 1.000000 0.750000
vt 0.250000 0.750000
vt 0.250000 0.500000
vt 0.500000 0.500000
vt 0.500000 0.750000
vt 0.250000 0.250000
vt 0.250000 0.000000
vt 0.500000 0.000000
vt 0.500000 0.250000
vt 0.000000 0.500000
vt 0.000000 0.250000
vt 0.000000 0.000000
vt 0.250000 1.000000
vt 0.500000 1.000000
vt 0.000000 1.000000
vt 0.000000 0.750000
vt 0.750000 1.000000
vt 1.000000 1.000000
s 0
usemtl ceiling
f 25/1/1 12/2/1 4/3/1 17/4/1
f 24/5/1 18/6/1 8/7/1 13/8/1
f 23/9/1 19/10/1 9/11/1 20/12/1
f 22/13/1 16/14/1 7/15/1 21/16/1
f 19/10/1 22/13/1 21/16/1 9/11/1
f 6/17/1 11/18/1 22/13/1 19/10/1
f 11/18/1 2/19/1 16/14/1 22/13/1
f 10/20/1 23/9/1 20/12/1 5/21/1
f 1/22/1 15/23/1 23/9/1 10/20/1
f 15/23/1 6/17/1 19/10/1 23/9/1
f 14/24/1 24/5/1 13/8/1 3/25/1
f 5/21/1 20/12/1 24/5/1 14/24/1
f 20/12/1 9/11/1 18/6/1 24/5/1
f 18/6/1 25/1/1 17/4/1 8/7/1
f 9/11/1 21/16/1 25/1/1 18/6/1
f 21/16/1 7/15/1 12/2/1 25/1/1
