# Blender 5.1.0
# www.blender.org
mtllib mirror.mtl
o mirror
v -14.954836 0.500000 16.084476
v -14.954836 1.500000 16.084476
v -14.954836 0.500000 14.584476
v -14.954836 1.500000 14.584476
v -14.914836 0.566774 16.017704
v -14.914836 1.433225 16.017704
v -14.914836 0.566774 14.651253
v -14.914836 1.433225 14.651253
v -14.914836 1.500000 14.584476
v -14.914836 0.500000 14.584476
v -14.914836 0.500000 16.084476
v -14.914836 1.500000 16.084476
v -14.947974 1.433225 14.651253
v -14.947974 0.566774 14.651253
v -14.947974 0.566774 16.017704
v -14.947974 1.433225 16.017704
v -14.954836 0.500000 15.106735
v -14.954836 0.500000 15.562218
v -14.954836 1.500000 15.562218
v -14.954836 1.500000 15.106735
v -14.914836 0.500000 15.562218
v -14.914836 0.500000 15.106735
v -14.914836 1.500000 15.106735
v -14.914836 1.500000 15.562218
v -14.914836 0.566774 15.562218
v -14.914836 0.566774 15.106735
v -14.914836 1.433225 15.106735
v -14.914836 1.433225 15.562218
v -14.947974 0.566774 15.562218
v -14.947974 0.566774 15.106735
v -14.947974 1.433225 15.106735
v -14.947974 1.433225 15.562218
v -14.954836 0.750000 16.084476
v -14.954836 1.000000 16.084476
v -14.954836 1.250000 16.084476
v -14.954836 1.250000 14.584476
v -14.954836 1.000000 14.584476
v -14.954836 0.750000 14.584476
v -14.914836 1.250000 14.584476
v -14.914836 1.000000 14.584476
v -14.914836 0.750000 14.584476
v -14.914836 1.250000 16.084476
v -14.914836 1.000000 16.084476
v -14.914836 0.750000 16.084476
v -14.914836 1.216613 14.651253
v -14.914836 1.000000 14.651253
v -14.914836 0.783387 14.651253
v -14.914836 1.216613 16.017704
v -14.914836 1.000000 16.017704
v -14.914836 0.783387 16.017704
v -14.947974 1.216613 14.651253
v -14.947974 1.000000 14.651253
v -14.947974 0.783387 14.651253
v -14.947974 1.216613 16.017704
v -14.947974 1.000000 16.017704
v -14.947974 0.783387 16.017704
v -14.947974 1.216613 15.106735
v -14.947974 1.000000 15.106735
v -14.947974 0.783387 15.106735
v -14.947974 1.216613 15.562218
v -14.947974 1.000000 15.562218
v -14.947974 0.783387 15.562218
v -14.954836 1.250000 15.562218
v -14.954836 1.000000 15.562218
v -14.954836 0.750000 15.562218
v -14.954836 1.250000 15.106735
v -14.954836 1.000000 15.106735
v -14.954836 0.750000 15.106735
v -14.954836 0.500000 15.823349
v -14.914836 1.500000 15.823349
v -14.914836 1.433225 15.789963
v -14.947974 1.433225 15.789963
v -14.954836 1.500000 15.823349
v -14.914836 0.500000 15.823349
v -14.914836 0.566774 15.789963
v -14.947974 0.566774 15.789963
v -14.954836 0.750000 15.823349
v -14.954836 1.000000 15.823349
v -14.954836 1.250000 15.823349
v -14.947974 0.783387 15.789963
v -14.947974 1.000000 15.789963
v -14.947974 1.216613 15.789963
v -14.954836 0.500000 15.334476
v -14.954836 1.500000 15.334476
v -14.914836 0.500000 15.334476
v -14.914836 1.500000 15.334476
v -14.914836 0.566774 15.334476
v -14.914836 1.433225 15.334476
v -14.947974 0.566774 15.334476
v -14.947974 1.433225 15.334476
v -14.954836 0.750000 15.334476
v -14.954836 1.000000 15.334476
v -14.954836 1.250000 15.334476
v -14.947974 0.783387 15.334476
v -14.947974 1.000000 15.334476
v -14.947974 1.216613 15.334476
v -14.954836 1.500000 14.845608
v -14.914836 0.500000 14.845608
v -14.914836 0.566774 14.878994
v -14.947974 0.566774 14.878994
v -14.954836 0.500000 14.845608
v -14.914836 1.500000 14.845608
v -14.914836 1.433225 14.878994
v -14.947974 1.433225 14.878994
v -14.947974 0.783387 14.878994
v -14.947974 1.000000 14.878994
v -14.947974 1.216613 14.878994
v -14.954836 0.750000 14.845608
v -14.954836 1.000000 14.845608
v -14.954836 1.250000 14.845608
vn -1.0000 -0.0000 -0.0000
vn -0.0000 -0.0000 -1.0000
vn -0.0000 -0.0000 1.0000
vn -0.0000 -1.0000 -0.0000
vn -0.0000 1.0000 -0.0000
vn 1.0000 -0.0000 -0.0000
vt 0.092907 0.096653
vt 0.008740 0.096653
vt 0.008740 0.008740
vt 0.092907 0.008740
vt 0.778927 0.570426
vt 0.778927 0.486259
vt 0.792393 0.486259
vt 0.792393 0.570426
vt 0.329082 0.750000
vt 0.329082 0.822926
vt 0.317925 0.822926
vt 0.317925 0.750000
vt 0.809873 0.570426
vt 0.809873 0.486259
vt 0.823340 0.486259
vt 0.823340 0.570426
vt 0.730501 0.096653
vt 0.717034 0.096653
vt 0.717034 0.008740
vt 0.730501 0.008740
vt 0.761447 0.096653
vt 0.747980 0.096653
vt 0.747980 0.008740
vt 0.761447 0.008740
vt 0.604147 0.491260
vt 0.677073 0.491260
vt 0.699554 0.513741
vt 0.615387 0.513741
vt 0.677073 0.107894
vt 0.677073 0.031221
vt 0.699554 0.008740
vt 0.699554 0.096654
vt 0.385368 0.414587
vt 0.385368 0.491260
vt 0.362887 0.513741
vt 0.362887 0.425827
vt 0.458294 0.031221
vt 0.385368 0.031221
vt 0.362887 0.008740
vt 0.447054 0.008740
vt 0.081666 0.607894
vt 0.008740 0.607894
vt 0.008740 0.531221
vt 0.081666 0.531221
vt 0.790083 0.392106
vt 0.790083 0.468779
vt 0.778927 0.468779
vt 0.778927 0.392106
vt 0.807563 0.085413
vt 0.807563 0.008740
vt 0.818720 0.008740
vt 0.818720 0.085413
vt 0.362887 0.604147
vt 0.362887 0.531221
vt 0.374043 0.531221
vt 0.374043 0.604147
vt 0.807563 0.392106
vt 0.807563 0.315433
vt 0.818720 0.315433
vt 0.818720 0.392106
vt 0.807563 0.238760
vt 0.807563 0.162086
vt 0.818720 0.162086
vt 0.818720 0.238760
vt 0.790083 0.085413
vt 0.790083 0.162086
vt 0.778927 0.162086
vt 0.778927 0.085413
vt 0.790083 0.238760
vt 0.790083 0.315433
vt 0.778927 0.315433
vt 0.778927 0.238760
vt 0.081666 0.914587
vt 0.008740 0.914587
vt 0.008740 0.837914
vt 0.081666 0.837914
vt 0.081666 0.761240
vt 0.008740 0.761240
vt 0.008740 0.684567
vt 0.081666 0.684567
vt 0.385368 0.107894
vt 0.385368 0.184567
vt 0.362887 0.184567
vt 0.362887 0.096653
vt 0.385368 0.261240
vt 0.385368 0.337914
vt 0.362887 0.337914
vt 0.362887 0.261240
vt 0.677073 0.414587
vt 0.677073 0.337914
vt 0.699554 0.337914
vt 0.699554 0.425827
vt 0.677073 0.261240
vt 0.677073 0.184567
vt 0.699554 0.184567
vt 0.699554 0.261240
vt 0.761447 0.425827
vt 0.747980 0.425827
vt 0.747980 0.337914
vt 0.761447 0.337914
vt 0.761447 0.261240
vt 0.747980 0.261240
vt 0.747980 0.184567
vt 0.761447 0.184567
vt 0.730501 0.425827
vt 0.717034 0.425827
vt 0.717034 0.337914
vt 0.730501 0.337914
vt 0.730501 0.261240
vt 0.717034 0.261240
vt 0.717034 0.184567
vt 0.730501 0.184567
vt 0.092907 0.425827
vt 0.008740 0.425827
vt 0.008740 0.337914
vt 0.092907 0.337914
vt 0.092907 0.261240
vt 0.008740 0.261240
vt 0.008740 0.184567
vt 0.092907 0.184567
vt 0.345407 0.261240
vt 0.261240 0.261240
vt 0.261240 0.184567
vt 0.345407 0.184567
vt 0.177074 0.261240
vt 0.177074 0.184567
vt 0.345407 0.425827
vt 0.261240 0.425827
vt 0.261240 0.337914
vt 0.345407 0.337914
vt 0.177074 0.425827
vt 0.177074 0.337914
vt 0.300446 0.761240
vt 0.227519 0.761240
vt 0.227519 0.684567
vt 0.300446 0.684567
vt 0.154593 0.761240
vt 0.154593 0.684567
vt 0.300446 0.914587
vt 0.227519 0.914587
vt 0.227519 0.837914
vt 0.300446 0.837914
vt 0.154593 0.914587
vt 0.154593 0.837914
vt 0.362887 0.822926
vt 0.362887 0.750000
vt 0.374043 0.750000
vt 0.374043 0.822926
vt 0.362887 0.677073
vt 0.374043 0.677073
vt 0.300446 0.607894
vt 0.227519 0.607894
vt 0.227519 0.531221
vt 0.300446 0.531221
vt 0.154593 0.607894
vt 0.154593 0.531221
vt 0.604147 0.031221
vt 0.615387 0.008740
vt 0.531221 0.031221
vt 0.531221 0.008740
vt 0.458294 0.491260
vt 0.447054 0.513741
vt 0.531221 0.491260
vt 0.531221 0.513741
vt 0.809873 0.822926
vt 0.809873 0.738760
vt 0.823340 0.738760
vt 0.823340 0.822926
vt 0.809873 0.654593
vt 0.823340 0.654593
vt 0.329082 0.531221
vt 0.329082 0.604147
vt 0.317925 0.604147
vt 0.317925 0.531221
vt 0.329082 0.677073
vt 0.317925 0.677073
vt 0.778927 0.822926
vt 0.778927 0.738760
vt 0.792393 0.738760
vt 0.792393 0.822926
vt 0.778927 0.654593
vt 0.792393 0.654593
vt 0.345407 0.096654
vt 0.261240 0.096654
vt 0.261240 0.008740
vt 0.345407 0.008740
vt 0.177074 0.096653
vt 0.177074 0.008740
vt 0.177074 0.513741
vt 0.092907 0.513741
vt 0.261240 0.513741
vt 0.345407 0.513741
vt 0.008740 0.513741
vt 0.790083 0.008740
vt 0.778927 0.008740
vt 0.154593 0.991260
vt 0.081666 0.991260
vt 0.227519 0.991260
vt 0.300446 0.991260
vt 0.730501 0.513741
vt 0.717034 0.513741
vt 0.761447 0.513741
vt 0.747980 0.513741
vt 0.008740 0.991260
vt 0.807563 0.468779
vt 0.818720 0.468779
s 0
usemtl mirror
f 110/1/1 97/2/1 4/3/1 36/4/1
f 36/5/2 4/6/2 9/7/2 39/8/2
f 50/9/2 5/10/2 15/11/2 56/12/2
f 42/13/3 12/14/3 2/15/3 35/16/3
f 69/17/4 74/18/4 11/19/4 1/20/4
f 70/21/5 73/22/5 2/23/5 12/24/5
f 47/25/6 7/26/6 10/27/6 41/28/6
f 75/29/6 5/30/6 11/31/6 74/32/6
f 103/33/6 8/34/6 9/35/6 102/36/6
f 48/37/6 6/38/6 12/39/6 42/40/6
f 82/41/6 72/42/6 16/43/6 54/44/6
f 99/45/5 7/46/5 14/47/5 100/48/5
f 71/49/4 6/50/4 16/51/4 72/52/4
f 45/53/3 8/54/3 13/55/3 51/56/3
f 103/57/4 27/58/4 31/59/4 104/60/4
f 88/61/4 28/62/4 32/63/4 90/64/4
f 75/65/5 25/66/5 29/67/5 76/68/5
f 87/69/5 26/70/5 30/71/5 89/72/5
f 107/73/6 104/74/6 31/75/6 57/76/6
f 96/77/6 90/78/6 32/79/6 60/80/6
f 71/81/6 28/82/6 24/83/6 70/84/6
f 88/85/6 27/86/6 23/87/6 86/88/6
f 99/89/6 26/90/6 22/91/6 98/92/6
f 87/93/6 25/94/6 21/95/6 85/96/6
f 102/97/5 97/98/5 20/99/5 23/100/5
f 86/101/5 84/102/5 19/103/5 24/104/5
f 101/105/4 98/106/4 22/107/4 17/108/4
f 83/109/4 85/110/4 21/111/4 18/112/4
f 79/113/1 73/114/1 19/115/1 63/116/1
f 93/117/1 84/118/1 20/119/1 66/120/1
f 83/121/1 91/122/1 68/123/1 17/124/1
f 91/122/1 92/125/1 67/126/1 68/123/1
f 92/125/1 93/117/1 66/120/1 67/126/1
f 69/127/1 77/128/1 65/129/1 18/130/1
f 77/128/1 78/131/1 64/132/1 65/129/1
f 78/131/1 79/113/1 63/116/1 64/132/1
f 89/133/6 94/134/6 62/135/6 29/136/6
f 94/134/6 95/137/6 61/138/6 62/135/6
f 95/137/6 96/77/6 60/80/6 61/138/6
f 100/139/6 105/140/6 59/141/6 30/142/6
f 105/140/6 106/143/6 58/144/6 59/141/6
f 106/143/6 107/73/6 57/76/6 58/144/6
f 7/145/3 47/146/3 53/147/3 14/148/3
f 47/146/3 46/149/3 52/150/3 53/147/3
f 46/149/3 45/53/3 51/56/3 52/150/3
f 76/151/6 80/152/6 56/153/6 15/154/6
f 80/152/6 81/155/6 55/156/6 56/153/6
f 81/155/6 82/41/6 54/44/6 55/156/6
f 5/30/6 50/157/6 44/158/6 11/31/6
f 50/157/6 49/159/6 43/160/6 44/158/6
f 49/159/6 48/37/6 42/40/6 43/160/6
f 8/34/6 45/161/6 39/162/6 9/35/6
f 45/161/6 46/163/6 40/164/6 39/162/6
f 46/163/6 47/25/6 41/28/6 40/164/6
f 11/165/3 44/166/3 33/167/3 1/168/3
f 44/166/3 43/169/3 34/170/3 33/167/3
f 43/169/3 42/13/3 35/16/3 34/170/3
f 6/171/2 48/172/2 54/173/2 16/174/2
f 48/172/2 49/175/2 55/176/2 54/173/2
f 49/175/2 50/9/2 56/12/2 55/176/2
f 3/177/2 38/178/2 41/179/2 10/180/2
f 38/178/2 37/181/2 40/182/2 41/179/2
f 37/181/2 36/5/2 39/8/2 40/182/2
f 101/183/1 108/184/1 38/185/1 3/186/1
f 108/184/1 109/187/1 37/188/1 38/185/1
f 109/187/1 110/1/1 36/4/1 37/188/1
f 61/138/6 60/80/6 82/41/6 81/155/6
f 62/135/6 61/138/6 81/155/6 80/152/6
f 29/136/6 62/135/6 80/152/6 76/151/6
f 34/189/1 35/190/1 79/113/1 78/131/1
f 33/191/1 34/189/1 78/131/1 77/128/1
f 1/192/1 33/191/1 77/128/1 69/127/1
f 35/190/1 2/193/1 73/114/1 79/113/1
f 6/38/6 71/81/6 70/84/6 12/39/6
f 5/194/5 75/65/5 76/68/5 15/195/5
f 28/62/4 71/49/4 72/52/4 32/63/4
f 60/80/6 32/79/6 72/42/6 82/41/6
f 25/94/6 75/29/6 74/32/6 21/95/6
f 24/104/5 19/103/5 73/22/5 70/21/5
f 18/112/4 21/111/4 74/18/4 69/17/4
f 58/144/6 57/76/6 96/77/6 95/137/6
f 59/141/6 58/144/6 95/137/6 94/134/6
f 30/142/6 59/141/6 94/134/6 89/133/6
f 64/132/1 63/116/1 93/117/1 92/125/1
f 65/129/1 64/132/1 92/125/1 91/122/1
f 18/130/1 65/129/1 91/122/1 83/121/1
f 63/116/1 19/115/1 84/118/1 93/117/1
f 17/108/4 22/107/4 85/110/4 83/109/4
f 23/100/5 20/99/5 84/102/5 86/101/5
f 26/90/6 87/93/6 85/96/6 22/91/6
f 28/82/6 88/85/6 86/88/6 24/83/6
f 57/76/6 31/75/6 90/78/6 96/77/6
f 25/66/5 87/69/5 89/72/5 29/67/5
f 27/58/4 88/61/4 90/64/4 31/59/4
f 67/126/1 66/120/1 110/1/1 109/187/1
f 68/123/1 67/126/1 109/187/1 108/184/1
f 17/124/1 68/123/1 108/184/1 101/183/1
f 52/196/6 51/197/6 107/73/6 106/143/6
f 53/198/6 52/196/6 106/143/6 105/140/6
f 14/199/6 53/198/6 105/140/6 100/139/6
f 3/200/4 10/201/4 98/106/4 101/105/4
f 9/202/5 4/203/5 97/98/5 102/97/5
f 7/26/6 99/89/6 98/92/6 10/27/6
f 51/197/6 13/204/6 104/74/6 107/73/6
f 8/205/4 103/57/4 104/60/4 13/206/4
f 26/70/5 99/45/5 100/48/5 30/71/5
f 27/86/6 103/33/6 102/36/6 23/87/6
f 66/120/1 20/119/1 97/2/1 110/1/1
