# Blender 5.1.0
# www.blender.org
mtllib ceiling_corner.mtl
o ceiling_corner
v -24.000059 0.000000 -12.741632
v -22.000059 0.000000 -12.741514
v -23.999941 0.000000 -14.741632
v -21.999941 0.000000 -14.741514
v -23.000059 0.000000 -12.741573
v -22.999941 0.000000 -14.741573
v -24.000000 0.000000 -13.741632
v -22.000000 0.000000 -13.741514
v -23.000000 0.000000 -13.741573
v -24.000031 0.000000 -13.241632
v -22.500059 0.000000 -12.741543
v -21.999969 0.000000 -14.241514
v -23.499941 0.000000 -14.741604
v -23.500059 0.000000 -12.741604
v -22.499941 0.000000 -14.741543
v -22.999969 0.000000 -14.241573
v -23.999969 0.000000 -14.241632
v -22.000031 0.000000 -13.241514
v -23.000031 0.000000 -13.241573
v -23.500000 0.000000 -13.741604
v -22.500000 0.000000 -13.741543
v -22.500031 0.000000 -13.241543
v -23.500031 0.000000 -13.241604
v -23.499969 0.000000 -14.241604
v -22.499969 0.000000 -14.241543
vn -0.0000 1.0000 -0.0000
vt 0.750000 0.250000
vt 0.750000 0.000000
vt 1.000000 0.000000
vt 1.000000 0.250000
vt 0.750000 0.750000
vt 0.750000 0.500000
vt 1.000000 0.500000
vt 1.000000 0.750000
vt 0.250000 0.750000
vt 0.250000 0.500000
vt 0.500000 0.500000
vt 0.500000 0.750000
vt 0.250000 0.250000
vt 0.250000 0.000000
vt 0.500000 0.000000
vt 0.500000 0.250000
vt 0.000000 0.500000
vt 0.000000 0.250000
vt 0.000000 0.000000
vt 0.250000 1.000000
vt 0.500000 1.000000
vt 0.000000 1.000000
vt 0.000000 0.750000
vt 0.750000 1.000000
vt 1.000000 1.000000
s 0
usemtl ceiling_corner
f 25/1/1 12/2/1 4/3/1 15/4/1
f 24/5/1 16/6/1 6/7/1 13/8/1
f 23/9/1 19/10/1 9/11/1 20/12/1
f 22/13/1 18/14/1 8/15/1 21/16/1
f 19/10/1 22/13/1 21/16/1 9/11/1
f 5/17/1 11/18/1 22/13/1 19/10/1
f 11/18/1 2/19/1 18/14/1 22/13/1
f 10/20/1 23/9/1 20/12/1 7/21/1
f 1/22/1 14/23/1 23/9/1 10/20/1
f 14/23/1 5/17/1 19/10/1 23/9/1
f 17/24/1 24/5/1 13/8/1 3/25/1
f 7/21/1 20/12/1 24/5/1 17/24/1
f 20/12/1 9/11/1 16/6/1 24/5/1
f 16/6/1 25/1/1 15/4/1 6/7/1
f 9/11/1 21/16/1 25/1/1 16/6/1
f 21/16/1 8/15/1 12/2/1 25/1/1
